<svg width="839" height="404" xmlns="http://www.w3.org/2000/svg" xmlns:xlink="http://www.w3.org/1999/xlink" overflow="hidden"><g><rect x="0" y="0" width="839" height="403.667" fill="#FFFFFF"/><path d="M6.50005 9.72771C6.50005 6.8385 8.84414 4.49634 11.7357 4.49634L828.264 4.49634C831.156 4.49634 833.5 6.8385 833.5 9.72771L833.5 128.159C833.5 131.048 831.156 133.39 828.264 133.39L11.7357 133.39C8.84414 133.39 6.50005 131.048 6.50005 128.159Z" stroke="#163E64" stroke-miterlimit="8" fill="#77B0F8" fill-rule="evenodd"/><text font-family="Microsoft YaHei,Microsoft YaHei_MSFontService,sans-serif" font-weight="700" font-size="19" transform="matrix(1 0 0 0.999176 375.555 23)">Interface</text><path d="M13.5001 42.0813C13.5001 37.3268 17.3576 33.4724 22.116 33.4724L219.884 33.4724C224.643 33.4724 228.5 37.3268 228.5 42.0813L228.5 120.784C228.5 125.539 224.643 129.393 219.884 129.393L22.116 129.393C17.3576 129.393 13.5001 125.539 13.5001 120.784Z" stroke="#163E64" stroke-width="0.666667" stroke-miterlimit="8" fill="#F2F7FC" fill-rule="evenodd"/><path d="M240.5 41.0821C240.5 36.3276 244.358 32.4733 249.116 32.4733L557.884 32.4733C562.643 32.4733 566.5 36.3276 566.5 41.0821L566.5 119.785C566.5 124.54 562.643 128.394 557.884 128.394L249.116 128.394C244.358 128.394 240.5 124.54 240.5 119.785Z" stroke="#163E64" stroke-width="0.666667" stroke-miterlimit="8" fill="#F2F7FC" fill-rule="evenodd"/><text font-family="Microsoft YaHei,Microsoft YaHei_MSFontService,sans-serif" font-weight="700" font-size="17" transform="matrix(1 0 0 0.999176 51.4683 50)">User Interaction</text><text font-family="Microsoft YaHei,Microsoft YaHei_MSFontService,sans-serif" font-weight="700" font-size="17" transform="matrix(1 0 0 0.999176 336.445 50)">High</text><text font-family="Microsoft YaHei,Microsoft YaHei_MSFontService,sans-serif" font-weight="700" font-size="17" transform="matrix(1 0 0 0.999176 378.445 50)">-</text><text font-family="Microsoft YaHei,Microsoft YaHei_MSFontService,sans-serif" font-weight="700" font-size="17" transform="matrix(1 0 0 0.999176 385.945 50)">Level API</text><path d="M577.5 40.3708C577.5 36.0091 581.039 32.4733 585.404 32.4733L819.596 32.4733C823.961 32.4733 827.5 36.0091 827.5 40.3708L827.5 119.497C827.5 123.859 823.961 127.395 819.596 127.395L585.404 127.395C581.039 127.395 577.5 123.859 577.5 119.497Z" stroke="#163E64" stroke-width="0.666667" stroke-miterlimit="8" fill="#F2F7FC" fill-rule="evenodd"/><text font-family="Microsoft YaHei,Microsoft YaHei_MSFontService,sans-serif" font-weight="700" font-size="17" transform="matrix(1 0 0 0.999176 586.04 51)">Application &amp; Deployment</text><text font-family="Arial,Arial_MSFontService,sans-serif" font-weight="400" font-size="14" transform="matrix(1 0 0 0.999176 47.1067 76)">•</text><text font-family="Microsoft YaHei,Microsoft YaHei_MSFontService,sans-serif" font-weight="400" font-size="14" transform="matrix(1 0 0 0.999176 68.3067 76)">Forecasting Tasks</text><text font-family="Arial,Arial_MSFontService,sans-serif" font-weight="400" font-size="14" transform="matrix(1 0 0 0.999176 47.1067 95)">•</text><text font-family="Microsoft YaHei,Microsoft YaHei_MSFontService,sans-serif" font-weight="400" font-size="14" transform="matrix(1 0 0 0.999176 68.3067 95)">Prototyping</text><text font-family="Arial,Arial_MSFontService,sans-serif" font-weight="400" font-size="14" transform="matrix(1 0 0 0.999176 47.1067 113)">•</text><text font-family="Microsoft YaHei,Microsoft YaHei_MSFontService,sans-serif" font-weight="400" font-size="14" transform="matrix(1 0 0 0.999176 68.3067 113)">Customization</text><text font-family="Arial,Arial_MSFontService,sans-serif" font-weight="400" font-size="14" transform="matrix(1 0 0 0.999176 245.993 70)">•</text><text font-family="Microsoft YaHei,Microsoft YaHei_MSFontService,sans-serif" font-weight="400" font-size="14" transform="matrix(1 0 0 0.999176 267.193 70)">Modeler</text><text font-family="Microsoft YaHei,Microsoft YaHei_MSFontService,sans-serif" font-weight="400" font-size="14" transform="matrix(1 0 0 0.999176 266.826 85)">(</text><text font-family="Consolas,Consolas_MSFontService,sans-serif" font-weight="700" font-size="14" transform="matrix(1 0 0 0.999176 271.493 85)">modeler.py</text><text font-family="Microsoft YaHei,Microsoft YaHei_MSFontService,sans-serif" font-weight="400" font-size="14" transform="matrix(1 0 0 0.999176 349.826 85)">)</text><text font-family="Arial,Arial_MSFontService,sans-serif" font-weight="400" font-size="14" transform="matrix(1 0 0 0.999176 245.993 102)">•</text><text font-family="Microsoft YaHei,Microsoft YaHei_MSFontService,sans-serif" font-weight="400" font-size="14" transform="matrix(1 0 0 0.999176 267.193 102)">Evaluator Class</text><text font-family="Microsoft YaHei,Microsoft YaHei_MSFontService,sans-serif" font-weight="400" font-size="14" transform="matrix(1 0 0 0.999176 266.826 116)">(</text><text font-family="Consolas,Consolas_MSFontService,sans-serif" font-weight="700" font-size="14" transform="matrix(1 0 0 0.999176 271.493 116)">metric/evaluator.py</text><text font-family="Microsoft YaHei,Microsoft YaHei_MSFontService,sans-serif" font-weight="400" font-size="14" transform="matrix(1 0 0 0.999176 420.326 116)">)</text><text font-family="Arial,Arial_MSFontService,sans-serif" font-weight="400" font-size="14" transform="matrix(1 0 0 0.999176 427.311 71)">•</text><text font-family="Microsoft YaHei,Microsoft YaHei_MSFontService,sans-serif" font-weight="400" font-size="14" transform="matrix(1 0 0 0.999176 448.511 71)">Trainer Class</text><text font-family="Microsoft YaHei,Microsoft YaHei_MSFontService,sans-serif" font-weight="400" font-size="14" transform="matrix(1 0 0 0.999176 448.511 86)">(</text><text font-family="Consolas,Consolas_MSFontService,sans-serif" font-weight="700" font-size="14" transform="matrix(1 0 0 0.999176 453.177 86)">modeler.py</text><text font-family="Microsoft YaHei,Microsoft YaHei_MSFontService,sans-serif" font-weight="400" font-size="14" transform="matrix(1 0 0 0.999176 531.511 86)">)</text><text font-family="Arial,Arial_MSFontService,sans-serif" font-weight="400" font-size="14" transform="matrix(1 0 0 0.999176 427.311 103)">•</text><text font-family="Microsoft YaHei,Microsoft YaHei_MSFontService,sans-serif" font-weight="400" font-size="14" transform="matrix(1 0 0 0.999176 448.511 103)">Visualization</text><text font-family="Microsoft YaHei,Microsoft YaHei_MSFontService,sans-serif" font-weight="400" font-size="14" transform="matrix(1 0 0 0.999176 448.144 118)">(</text><text font-family="Consolas,Consolas_MSFontService,sans-serif" font-weight="700" font-size="14" transform="matrix(1 0 0 0.999176 452.811 118)">visualize.py</text><text font-family="Microsoft YaHei,Microsoft YaHei_MSFontService,sans-serif" font-weight="400" font-size="14" transform="matrix(1 0 0 0.999176 546.811 118)">)</text><text font-family="Arial,Arial_MSFontService,sans-serif" font-weight="400" font-size="14" transform="matrix(1 0 0 0.999176 612.707 71)">•</text><text font-family="Microsoft YaHei,Microsoft YaHei_MSFontService,sans-serif" font-weight="400" font-size="14" transform="matrix(1 0 0 0.999176 633.907 71)">Real</text><text font-family="Microsoft YaHei,Microsoft YaHei_MSFontService,sans-serif" font-weight="400" font-size="14" transform="matrix(1 0 0 0.999176 662.741 71)">-</text><text font-family="Microsoft YaHei,Microsoft YaHei_MSFontService,sans-serif" font-weight="400" font-size="14" transform="matrix(1 0 0 0.999176 668.907 71)">time Forecasting</text><text font-family="Arial,Arial_MSFontService,sans-serif" font-weight="400" font-size="14" transform="matrix(1 0 0 0.999176 612.707 87)">•</text><text font-family="Microsoft YaHei,Microsoft YaHei_MSFontService,sans-serif" font-weight="400" font-size="14" transform="matrix(1 0 0 0.999176 633.907 87)">Custom Solutions</text><text font-family="Arial,Arial_MSFontService,sans-serif" font-weight="400" font-size="14" transform="matrix(1 0 0 0.999176 612.707 103)">•</text><text font-family="Microsoft YaHei,Microsoft YaHei_MSFontService,sans-serif" font-weight="400" font-size="14" transform="matrix(1 0 0 0.999176 633.907 103)">Research Prototyping</text><text font-family="Arial,Arial_MSFontService,sans-serif" font-weight="400" font-size="14" transform="matrix(1 0 0 0.999176 612.707 118)">•</text><text font-family="Microsoft YaHei,Microsoft YaHei_MSFontService,sans-serif" font-weight="400" font-size="14" transform="matrix(1 0 0 0.999176 633.907 118)">Generative Modeling</text><path d="M6.50005 144.577C6.50005 141.709 8.8263 139.385 11.6959 139.385L829.304 139.385C832.174 139.385 834.5 141.709 834.5 144.577L834.5 262.088C834.5 264.955 832.174 267.28 829.304 267.28L11.6959 267.28C8.8263 267.28 6.50005 264.955 6.50005 262.088Z" stroke="#13501B" stroke-miterlimit="8" fill="#A2DB7D" fill-rule="evenodd"/><text font-family="Microsoft YaHei,Microsoft YaHei_MSFontService,sans-serif" font-weight="700" font-size="19" transform="matrix(1 0 0 0.999176 231.035 158)">Multi</text><text font-family="Microsoft YaHei,Microsoft YaHei_MSFontService,sans-serif" font-weight="700" font-size="19" transform="matrix(1 0 0 0.999176 281.369 158)">-</text><text font-family="Microsoft YaHei,Microsoft YaHei_MSFontService,sans-serif" font-weight="700" font-size="19" transform="matrix(1 0 0 0.999176 289.535 158)">level Workflow or Implementation</text><path d="M14.5001 174.972C14.5001 170.217 18.3576 166.363 23.116 166.363L220.884 166.363C225.643 166.363 229.5 170.217 229.5 174.972L229.5 253.675C229.5 258.429 225.643 262.284 220.884 262.284L23.116 262.284C18.3576 262.284 14.5001 258.429 14.5001 253.675Z" stroke="#13501B" stroke-width="0.666667" stroke-miterlimit="8" fill="#E7F7E1" fill-rule="evenodd"/><path d="M251.5 174.972C251.5 170.217 255.358 166.363 260.116 166.363L546.884 166.363C551.643 166.363 555.5 170.217 555.5 174.972L555.5 253.675C555.5 258.429 551.643 262.284 546.884 262.284L260.116 262.284C255.358 262.284 251.5 258.429 251.5 253.675Z" stroke="#13501B" stroke-width="0.666667" stroke-miterlimit="8" fill="#E7F7E1" fill-rule="evenodd"/><text font-family="Microsoft YaHei,Microsoft YaHei_MSFontService,sans-serif" font-weight="700" font-size="17" transform="matrix(1 0 0 0.999176 101.461 184)">Data</text><text font-family="Microsoft YaHei,Microsoft YaHei_MSFontService,sans-serif" font-weight="700" font-size="17" transform="matrix(1 0 0 0.999176 377.785 184)">Model</text><path d="M649.5 174.343C649.5 169.936 653.076 166.363 657.487 166.363L820.513 166.363C824.924 166.363 828.5 169.936 828.5 174.343L828.5 254.303C828.5 258.711 824.924 262.284 820.513 262.284L657.487 262.284C653.076 262.284 649.5 258.711 649.5 254.303Z" stroke="#13501B" stroke-width="0.666667" stroke-miterlimit="8" fill="#E7F7E1" fill-rule="evenodd"/><text font-family="Microsoft YaHei,Microsoft YaHei_MSFontService,sans-serif" font-weight="700" font-size="17" transform="matrix(1 0 0 0.999176 711.264 185)">Metric</text><text font-family="Arial,Arial_MSFontService,sans-serif" font-weight="400" font-size="14" transform="matrix(1 0 0 0.999176 28.3163 199)">•</text><text font-family="Microsoft YaHei,Microsoft YaHei_MSFontService,sans-serif" font-weight="400" font-size="14" transform="matrix(1 0 0 0.999176 49.5163 199)">Dataset Classes</text><text font-family="Microsoft YaHei,Microsoft YaHei_MSFontService,sans-serif" font-weight="400" font-size="14" transform="matrix(1 0 0 0.999176 49.1497 218)">(SST, SMT, MMT, BDP)</text><text font-family="Arial,Arial_MSFontService,sans-serif" font-weight="400" font-size="14" transform="matrix(1 0 0 0.999176 28.3163 236)">•</text><text font-family="Microsoft YaHei,Microsoft YaHei_MSFontService,sans-serif" font-weight="400" font-size="14" transform="matrix(1 0 0 0.999176 49.5163 236)">Scaling</text><text font-family="Arial,Arial_MSFontService,sans-serif" font-weight="400" font-size="14" transform="matrix(1 0 0 0.999176 28.3163 255)">•</text><text font-family="Microsoft YaHei,Microsoft YaHei_MSFontService,sans-serif" font-weight="400" font-size="14" transform="matrix(1 0 0 0.999176 49.5163 255)">Splitting</text><text font-family="Arial,Arial_MSFontService,sans-serif" font-weight="400" font-size="14" transform="matrix(1 0 0 0.999176 124.309 239)">•</text><text font-family="Microsoft YaHei,Microsoft YaHei_MSFontService,sans-serif" font-weight="400" font-size="14" transform="matrix(1 0 0 0.999176 145.509 239)">Patching</text><text font-family="Arial,Arial_MSFontService,sans-serif" font-weight="400" font-size="14" transform="matrix(1 0 0 0.999176 261.709 206)">•</text><text font-family="Microsoft YaHei,Microsoft YaHei_MSFontService,sans-serif" font-weight="400" font-size="14" transform="matrix(1 0 0 0.999176 282.909 206)">Base Components</text><text font-family="Arial,Arial_MSFontService,sans-serif" font-weight="400" font-size="14" transform="matrix(1 0 0 0.999176 261.709 225)">•</text><text font-family="Microsoft YaHei,Microsoft YaHei_MSFontService,sans-serif" font-weight="400" font-size="14" transform="matrix(1 0 0 0.999176 282.909 225)">Generative Models</text><text font-family="Arial,Arial_MSFontService,sans-serif" font-weight="400" font-size="14" transform="matrix(1 0 0 0.999176 261.709 243)">•</text><text font-family="Microsoft YaHei,Microsoft YaHei_MSFontService,sans-serif" font-weight="400" font-size="14" transform="matrix(1 0 0 0.999176 282.909 243)">Fusion Models</text><text font-family="Arial,Arial_MSFontService,sans-serif" font-weight="400" font-size="14" transform="matrix(1 0 0 0.999176 428.471 206)">•</text><text font-family="Microsoft YaHei,Microsoft YaHei_MSFontService,sans-serif" font-weight="400" font-size="14" transform="matrix(1 0 0 0.999176 449.671 206)">MTS Models</text><text font-family="Arial,Arial_MSFontService,sans-serif" font-weight="400" font-size="14" transform="matrix(1 0 0 0.999176 428.471 225)">•</text><text font-family="Microsoft YaHei,Microsoft YaHei_MSFontService,sans-serif" font-weight="400" font-size="14" transform="matrix(1 0 0 0.999176 449.671 225)">UTS Models</text><text font-family="Arial,Arial_MSFontService,sans-serif" font-weight="400" font-size="14" transform="matrix(1 0 0 0.999176 668.452 207)">•</text><text font-family="Microsoft YaHei,Microsoft YaHei_MSFontService,sans-serif" font-weight="400" font-size="14" transform="matrix(1 0 0 0.999176 689.652 207)">Standard Metrics</text><text font-family="Arial,Arial_MSFontService,sans-serif" font-weight="400" font-size="14" transform="matrix(1 0 0 0.999176 668.452 226)">•</text><text font-family="Microsoft YaHei,Microsoft YaHei_MSFontService,sans-serif" font-weight="400" font-size="14" transform="matrix(1 0 0 0.999176 689.652 226)">Sparse Metrics</text><text font-family="Arial,Arial_MSFontService,sans-serif" font-weight="400" font-size="14" transform="matrix(1 0 0 0.999176 668.452 244)">•</text><text font-family="Microsoft YaHei,Microsoft YaHei_MSFontService,sans-serif" font-weight="400" font-size="14" transform="matrix(1 0 0 0.999176 689.652 244)">Evaluator Class</text><path d="M229 212.824 244.292 212.824 244.292 214.823 229 214.823ZM242.959 209.827 250.959 213.824 242.959 217.82Z"/><path d="M555 188.844 642.443 188.844 642.443 190.843 555 190.843ZM641.11 185.847 649.11 189.843 641.11 193.84Z"/><path d="M1.11839e-06-0.999176 87.0577-0.999078 87.0577 0.999273-1.11839e-06 0.999176ZM85.7255-3.99661 93.7189 0.0001049 85.7255 3.9968Z" transform="matrix(-1.00083 0 0 1 648.796 239.802)"/><text font-family="Microsoft YaHei,Microsoft YaHei_MSFontService,sans-serif" font-weight="400" font-size="14" transform="matrix(1 0 0 0.999176 561.76 212)">Feedback &amp;</text><text font-family="Microsoft YaHei,Microsoft YaHei_MSFontService,sans-serif" font-weight="400" font-size="14" transform="matrix(1 0 0 0.999176 569.593 231)">Adjusting</text><path d="M6.50005 277.467C6.50005 274.6 8.8263 272.275 11.6959 272.275L829.304 272.275C832.174 272.275 834.5 274.6 834.5 277.467L834.5 394.978C834.5 397.846 832.174 400.17 829.304 400.17L11.6959 400.17C8.8263 400.17 6.50005 397.846 6.50005 394.978Z" stroke="#80350E" stroke-miterlimit="8" fill="#FBB055" fill-rule="evenodd"/><text font-family="Microsoft YaHei,Microsoft YaHei_MSFontService,sans-serif" font-weight="700" font-size="19" transform="matrix(1 0 0 0.999176 357.952 291)">Infrastructure</text><path d="M14.5001 308.771C14.5001 304.066 18.3173 300.252 23.0262 300.252L220.974 300.252C225.683 300.252 229.5 304.066 229.5 308.771L229.5 386.655C229.5 391.36 225.683 395.174 220.974 395.174L23.0262 395.174C18.3173 395.174 14.5001 391.36 14.5001 386.655Z" stroke="#80350E" stroke-width="0.666667" stroke-miterlimit="8" fill="#FDEFE7" fill-rule="evenodd"/><path d="M251.5 308.772C251.5 304.066 255.317 300.252 260.026 300.252L475.974 300.252C480.683 300.252 484.5 304.066 484.5 308.772L484.5 386.655C484.5 391.36 480.683 395.174 475.974 395.174L260.026 395.174C255.317 395.174 251.5 391.36 251.5 386.655Z" stroke="#80350E" stroke-width="0.666667" stroke-miterlimit="8" fill="#FDEFE7" fill-rule="evenodd"/><text font-family="Microsoft YaHei,Microsoft YaHei_MSFontService,sans-serif" font-weight="700" font-size="17" transform="matrix(1 0 0 0.999176 23.2939 317)">Data Sources &amp; Access</text><text font-family="Microsoft YaHei,Microsoft YaHei_MSFontService,sans-serif" font-weight="700" font-size="17" transform="matrix(1 0 0 0.999176 288.405 317)">Training Utilities</text><path d="M505.5 308.15C505.5 303.788 509.039 300.252 513.404 300.252L820.596 300.252C824.961 300.252 828.5 303.788 828.5 308.15L828.5 387.276C828.5 391.638 824.961 395.174 820.596 395.174L513.404 395.174C509.039 395.174 505.5 391.638 505.5 387.276Z" stroke="#80350E" stroke-width="0.666667" stroke-miterlimit="8" fill="#FDEFE7" fill-rule="evenodd"/><text font-family="Microsoft YaHei,Microsoft YaHei_MSFontService,sans-serif" font-weight="700" font-size="17" transform="matrix(1 0 0 0.999176 528.926 320)">Model Artifacts &amp; Management</text><text font-family="Arial,Arial_MSFontService,sans-serif" font-weight="400" font-size="14" transform="matrix(1 0 0 0.999176 61.4434 347)">•</text><text font-family="Microsoft YaHei,Microsoft YaHei_MSFontService,sans-serif" font-weight="400" font-size="14" transform="matrix(1 0 0 0.999176 82.6434 347)">Local Data</text><text font-family="Arial,Arial_MSFontService,sans-serif" font-weight="400" font-size="14" transform="matrix(1 0 0 0.999176 61.4434 371)">•</text><text font-family="Microsoft YaHei,Microsoft YaHei_MSFontService,sans-serif" font-weight="400" font-size="14" transform="matrix(1 0 0 0.999176 82.6434 371)">Remote Data</text><text font-family="Arial,Arial_MSFontService,sans-serif" font-weight="400" font-size="14" transform="matrix(1 0 0 0.999176 260.955 341)">•</text><text font-family="Microsoft YaHei,Microsoft YaHei_MSFontService,sans-serif" font-weight="400" font-size="14" transform="matrix(1 0 0 0.999176 278.955 341)">Training Algorithms</text><text font-family="Arial,Arial_MSFontService,sans-serif" font-weight="400" font-size="14" transform="matrix(1 0 0 0.999176 260.955 357)">•</text><text font-family="Microsoft YaHei,Microsoft YaHei_MSFontService,sans-serif" font-weight="400" font-size="14" transform="matrix(1 0 0 0.999176 278.955 357)">Reproducibility</text><text font-family="Arial,Arial_MSFontService,sans-serif" font-weight="400" font-size="14" transform="matrix(1 0 0 0.999176 260.955 373)">•</text><text font-family="Microsoft YaHei,Microsoft YaHei_MSFontService,sans-serif" font-weight="400" font-size="14" transform="matrix(1 0 0 0.999176 278.955 373)">Visualization</text><text font-family="Arial,Arial_MSFontService,sans-serif" font-weight="400" font-size="14" transform="matrix(1 0 0 0.999176 526.973 350)">•</text><text font-family="Microsoft YaHei,Microsoft YaHei_MSFontService,sans-serif" font-weight="400" font-size="14" transform="matrix(1 0 0 0.999176 548.173 350)">Trained Model</text><text font-family="Arial,Arial_MSFontService,sans-serif" font-weight="400" font-size="14" transform="matrix(1 0 0 0.999176 526.973 375)">•</text><text font-family="Microsoft YaHei,Microsoft YaHei_MSFontService,sans-serif" font-weight="400" font-size="14" transform="matrix(1 0 0 0.999176 548.173 375)">Configurations</text><text font-family="Arial,Arial_MSFontService,sans-serif" font-weight="400" font-size="14" transform="matrix(1 0 0 0.999176 664.373 350)">•</text><text font-family="Microsoft YaHei,Microsoft YaHei_MSFontService,sans-serif" font-weight="400" font-size="14" transform="matrix(1 0 0 0.999176 685.573 350)">Checkpoints</text><text font-family="Arial,Arial_MSFontService,sans-serif" font-weight="400" font-size="14" transform="matrix(1 0 0 0.999176 664.373 375)">•</text><text font-family="Microsoft YaHei,Microsoft YaHei_MSFontService,sans-serif" font-weight="400" font-size="14" transform="matrix(1 0 0 0.999176 685.573 375)">Evaluation Results</text><text font-family="Arial,Arial_MSFontService,sans-serif" font-weight="400" font-size="14" transform="matrix(1 0 0 0.999176 379.535 378)">•</text><text font-family="Microsoft YaHei,Microsoft YaHei_MSFontService,sans-serif" font-weight="400" font-size="14" transform="matrix(1 0 0 0.999176 397.535 378)">Fine</text><text font-family="Microsoft YaHei,Microsoft YaHei_MSFontService,sans-serif" font-weight="400" font-size="14" transform="matrix(1 0 0 0.999176 425.535 378)">-</text><text font-family="Microsoft YaHei,Microsoft YaHei_MSFontService,sans-serif" font-weight="400" font-size="14" transform="matrix(1 0 0 0.999176 431.702 378)">tuning</text></g></svg>