<svg width="682" height="378" xmlns="http://www.w3.org/2000/svg" xmlns:xlink="http://www.w3.org/1999/xlink" overflow="hidden"><defs><clipPath id="clip0"><rect x="0" y="0" width="682" height="378"/></clipPath></defs><g clip-path="url(#clip0)"><rect x="0" y="0" width="682" height="378.259" fill="#FFFFFF"/><path d="M618.5 235.776C618.5 234.055 619.895 232.659 621.615 232.659L660.385 232.659C662.105 232.659 663.5 234.055 663.5 235.776L663.5 312.599C663.5 314.321 662.105 315.716 660.385 315.716L621.615 315.716C619.895 315.716 618.5 314.321 618.5 312.599Z" stroke="#4EA72E" stroke-width="0.666504" stroke-miterlimit="8" fill="none" fill-rule="evenodd"/><rect x="614" y="229.157" width="30" height="90.0618" fill="#FFFFFF"/><path d="M3.149e-06-0.333252 7.10882-0.333185 7.10881 0.333319-3.149e-06 0.333252ZM5.77584-3.99897 11.1078 0.000104961 5.77577 3.99908Z" fill="#4EA72E" transform="matrix(-1 0 0 1.00069 655.608 314.716)"/><path d="M619.5 62.5886C619.5 60.9053 620.864 59.5408 622.546 59.5408L660.454 59.5408C662.136 59.5408 663.5 60.9053 663.5 62.5886L663.5 139.55C663.5 141.233 662.136 142.598 660.454 142.598L622.546 142.598C620.864 142.598 619.5 141.233 619.5 139.55Z" stroke="#4EA72E" stroke-width="0.666504" stroke-miterlimit="8" fill="none" fill-rule="evenodd"/><rect x="614" y="56.0384" width="31" height="90.0618" fill="#FFFFFF"/><path d="M3.149e-06-0.333252 7.10882-0.333185 7.10881 0.333319-3.149e-06 0.333252ZM5.77584-3.99897 11.1078 0.000104961 5.77577 3.99908Z" fill="#4EA72E" transform="matrix(-1 0 0 1.00069 656.608 142.598)"/><path d="M23.5 64.6592C23.5 62.9377 24.8946 61.5422 26.6148 61.5422L65.3851 61.5422C67.1054 61.5422 68.5 62.9377 68.5 64.6592L68.5 141.482C68.5 143.204 67.1054 144.599 65.3851 144.599L26.6148 144.599C24.8946 144.599 23.5 143.204 23.5 141.482Z" stroke="#4EA72E" stroke-width="0.666504" stroke-miterlimit="8" fill="none" fill-rule="evenodd"/><rect x="40" y="58.0398" width="31" height="89.061" fill="#FFFFFF"/><path d="M29.5 61.2087 37.5952 61.2088 37.5952 61.8758 29.5 61.8757ZM36.2622 57.5405 41.5942 61.5423 36.2622 65.544Z" fill="#4EA72E"/><path d="M22.5 233.775C22.5 232.054 23.8946 230.658 25.6149 230.658L64.3851 230.658C66.1055 230.658 67.5 232.054 67.5 233.775L67.5 309.597C67.5 311.319 66.1055 312.714 64.3851 312.714L25.6149 312.714C23.8946 312.714 22.5 311.319 22.5 309.597Z" stroke="#4EA72E" stroke-width="0.666504" stroke-miterlimit="8" fill="none" fill-rule="evenodd"/><rect x="39" y="226.155" width="31" height="90.0617" fill="#FFFFFF"/><path d="M28.5 229.324 36.5953 229.324 36.5953 229.991 28.5 229.991ZM35.2623 225.656 40.5943 229.657 35.2622 233.659Z" fill="#4EA72E"/><path d="M40 19.5959C40 14.3 44.2902 10.0068 49.5825 10.0068L634.418 10.0068C639.71 10.0068 644 14.3 644 19.5959L644 113.495C644 118.791 639.71 123.084 634.418 123.084L49.5825 123.084C44.2902 123.084 40 118.791 40 113.495Z" stroke="#4E87E6" stroke-width="1.99951" stroke-miterlimit="8" fill="#F9FDFF" fill-rule="evenodd"/><path d="M49.4398 10.0068 634.56 10.0068C639.774 10.0068 644 14.2361 644 19.4533L644 35.0239 40 35.0239 40 19.4533C40 14.2361 44.2263 10.0068 49.4398 10.0068Z" stroke="#4E87E6" stroke-width="1.99951" stroke-miterlimit="8" fill="#4E87E6" fill-rule="evenodd"/><text fill="#FFFFFF" font-family="Times New Roman,Times New Roman_MSFontService,sans-serif" font-weight="700" font-size="13" transform="matrix(1 0 0 1.00069 264.165 29)">Interfaces and Applications</text><text font-family="Times New Roman,Times New Roman_MSFontService,sans-serif" font-weight="700" font-size="13" transform="matrix(1 0 0 1.00069 94.3053 49)">User Interaction</text><text font-family="Times New Roman,Times New Roman_MSFontService,sans-serif" font-weight="400" font-size="13" transform="matrix(1 0 0 1.00069 52.0013 74)">-</text><text font-family="Times New Roman,Times New Roman_MSFontService,sans-serif" font-weight="400" font-size="13" transform="matrix(1 0 0 1.00069 59.8327 74)">Forecasting</text><text font-family="Times New Roman,Times New Roman_MSFontService,sans-serif" font-weight="400" font-size="13" transform="matrix(1 0 0 1.00069 52.0013 90)">-</text><text font-family="Times New Roman,Times New Roman_MSFontService,sans-serif" font-weight="400" font-size="13" transform="matrix(1 0 0 1.00069 59.8327 90)">Imputation</text><text font-family="Times New Roman,Times New Roman_MSFontService,sans-serif" font-weight="400" font-size="13" transform="matrix(1 0 0 1.00069 52.0013 106)">-</text><text font-family="Times New Roman,Times New Roman_MSFontService,sans-serif" font-weight="400" font-size="13" transform="matrix(1 0 0 1.00069 59.8327 106)">Ensemble</text><text font-family="Times New Roman,Times New Roman_MSFontService,sans-serif" font-weight="700" font-size="13" transform="matrix(1 0 0 1.00069 292.487 49)">High</text><text font-family="Times New Roman,Times New Roman_MSFontService,sans-serif" font-weight="700" font-size="13" transform="matrix(1 0 0 1.00069 320.48 49)">-</text><text font-family="Times New Roman,Times New Roman_MSFontService,sans-serif" font-weight="700" font-size="13" transform="matrix(1 0 0 1.00069 324.979 49)">Level API</text><text font-family="Times New Roman,Times New Roman_MSFontService,sans-serif" font-weight="400" font-size="13" transform="matrix(1 0 0 1.00069 257.308 66)">-</text><text font-family="Times New Roman,Times New Roman_MSFontService,sans-serif" font-weight="400" font-size="13" transform="matrix(1 0 0 1.00069 265.14 66)">Processing</text><text font-family="Times New Roman,Times New Roman_MSFontService,sans-serif" font-weight="400" font-size="13" transform="matrix(1 0 0 1.00069 267.306 82)">(</text><text font-family="Times New Roman,Times New Roman_MSFontService,sans-serif" font-weight="400" font-size="13" transform="matrix(1 0 0 1.00069 271.805 82)">load.py</text><text font-family="Times New Roman,Times New Roman_MSFontService,sans-serif" font-weight="400" font-size="13" transform="matrix(1 0 0 1.00069 311.295 82)">)</text><text font-family="Times New Roman,Times New Roman_MSFontService,sans-serif" font-weight="400" font-size="13" transform="matrix(1 0 0 1.00069 257.308 98)">-</text><text font-family="Times New Roman,Times New Roman_MSFontService,sans-serif" font-weight="400" font-size="13" transform="matrix(1 0 0 1.00069 265.14 98)">Model</text><text font-family="Times New Roman,Times New Roman_MSFontService,sans-serif" font-weight="400" font-size="13" transform="matrix(1 0 0 1.00069 267.306 114)">(modelers)</text><text font-family="Times New Roman,Times New Roman_MSFontService,sans-serif" font-weight="700" font-size="13" transform="matrix(1 0 0 1.00069 508.861 49)">Application</text><text font-family="Times New Roman,Times New Roman_MSFontService,sans-serif" font-weight="400" font-size="13" transform="matrix(1 0 0 1.00069 455.828 68)">-</text><text font-family="Times New Roman,Times New Roman_MSFontService,sans-serif" font-weight="400" font-size="13" transform="matrix(1 0 0 1.00069 463.66 68)">Sparse forecasting (ITSF,</text><text font-family="Times New Roman,Times New Roman_MSFontService,sans-serif" font-weight="400" font-size="13" transform="matrix(1 0 0 1.00069 603.126 68)">pKa</text><text font-family="Times New Roman,Times New Roman_MSFontService,sans-serif" font-weight="400" font-size="13" transform="matrix(1 0 0 1.00069 625.287 68)">)</text><text font-family="Times New Roman,Times New Roman_MSFontService,sans-serif" font-weight="400" font-size="13" transform="matrix(1 0 0 1.00069 455.828 84)">-</text><text font-family="Times New Roman,Times New Roman_MSFontService,sans-serif" font-weight="400" font-size="13" transform="matrix(1 0 0 1.00069 463.66 84)">Personalization forecasting</text><text font-family="Times New Roman,Times New Roman_MSFontService,sans-serif" font-weight="400" font-size="13" transform="matrix(1 0 0 1.00069 455.828 100)">-</text><text font-family="Times New Roman,Times New Roman_MSFontService,sans-serif" font-weight="400" font-size="13" transform="matrix(1 0 0 1.00069 463.66 100)">Online/offline forecasting</text><text font-family="Times New Roman,Times New Roman_MSFontService,sans-serif" font-weight="400" font-size="13" transform="matrix(1 0 0 1.00069 455.828 116)">-</text><text font-family="Times New Roman,Times New Roman_MSFontService,sans-serif" font-weight="400" font-size="13" transform="matrix(1 0 0 1.00069 463.66 116)">LLM</text><text font-family="Times New Roman,Times New Roman_MSFontService,sans-serif" font-weight="400" font-size="13" transform="matrix(1 0 0 1.00069 491.82 116)">-</text><text font-family="Times New Roman,Times New Roman_MSFontService,sans-serif" font-weight="400" font-size="13" transform="matrix(1 0 0 1.00069 496.319 116)">inspired (alignment</text><text font-family="Times New Roman,Times New Roman_MSFontService,sans-serif" font-weight="400" font-size="13" transform="matrix(1 0 0 1.00069 599.96 116)">-</text><text font-family="Times New Roman,Times New Roman_MSFontService,sans-serif" font-weight="400" font-size="13" transform="matrix(1 0 0 1.00069 604.459 116)">free)</text><path d="M243 40.0274 243 123.214" stroke="#DBDCDC" stroke-width="1.99951" stroke-miterlimit="8" stroke-dasharray="7.99805 5.99853" fill="none" fill-rule="evenodd"/><text font-family="Times New Roman,Times New Roman_MSFontService,sans-serif" font-weight="400" font-size="13" transform="matrix(1 0 0 1.00069 139.987 74)">-</text><text font-family="Times New Roman,Times New Roman_MSFontService,sans-serif" font-weight="400" font-size="13" transform="matrix(1 0 0 1.00069 147.819 74)">Prototyping</text><text font-family="Times New Roman,Times New Roman_MSFontService,sans-serif" font-weight="400" font-size="13" transform="matrix(1 0 0 1.00069 139.987 90)">-</text><text font-family="Times New Roman,Times New Roman_MSFontService,sans-serif" font-weight="400" font-size="13" transform="matrix(1 0 0 1.00069 147.819 90)">Customization</text><text font-family="Times New Roman,Times New Roman_MSFontService,sans-serif" font-weight="400" font-size="13" transform="matrix(1 0 0 1.00069 139.987 106)">-</text><text font-family="Times New Roman,Times New Roman_MSFontService,sans-serif" font-weight="400" font-size="13" transform="matrix(1 0 0 1.00069 147.819 106)">Examples</text><text font-family="Times New Roman,Times New Roman_MSFontService,sans-serif" font-weight="400" font-size="13" transform="matrix(1 0 0 1.00069 348.005 66)">-</text><text font-family="Times New Roman,Times New Roman_MSFontService,sans-serif" font-weight="400" font-size="13" transform="matrix(1 0 0 1.00069 355.837 66)">Evaluator</text><text font-family="Times New Roman,Times New Roman_MSFontService,sans-serif" font-weight="400" font-size="13" transform="matrix(1 0 0 1.00069 358.003 82)">(</text><text font-family="Times New Roman,Times New Roman_MSFontService,sans-serif" font-weight="400" font-size="13" transform="matrix(1 0 0 1.00069 362.502 82)">evaluate.py</text><text font-family="Times New Roman,Times New Roman_MSFontService,sans-serif" font-weight="400" font-size="13" transform="matrix(1 0 0 1.00069 423.153 82)">)</text><text font-family="Times New Roman,Times New Roman_MSFontService,sans-serif" font-weight="400" font-size="13" transform="matrix(1 0 0 1.00069 348.005 98)">-</text><text font-family="Times New Roman,Times New Roman_MSFontService,sans-serif" font-weight="400" font-size="13" transform="matrix(1 0 0 1.00069 355.837 98)">Trainer</text><text font-family="Times New Roman,Times New Roman_MSFontService,sans-serif" font-weight="400" font-size="13" transform="matrix(1 0 0 1.00069 358.003 114)">(</text><text font-family="Times New Roman,Times New Roman_MSFontService,sans-serif" font-weight="400" font-size="13" transform="matrix(1 0 0 1.00069 362.502 114)">train.py</text><text font-family="Times New Roman,Times New Roman_MSFontService,sans-serif" font-weight="400" font-size="13" transform="matrix(1 0 0 1.00069 403.492 114)">)</text><path d="M439 40.0274 439 123.214" stroke="#DBDCDC" stroke-width="1.99951" stroke-miterlimit="8" stroke-dasharray="7.99805 5.99853" fill="none" fill-rule="evenodd"/><path d="M40 139.678C40 134.382 44.2902 130.089 49.5825 130.089L634.418 130.089C639.71 130.089 644 134.382 644 139.678L644 233.578C644 238.873 639.71 243.167 634.418 243.167L49.5825 243.167C44.2902 243.167 40 238.873 40 233.578Z" stroke="#31B186" stroke-width="1.99951" stroke-miterlimit="8" fill="#F9FDFF" fill-rule="evenodd"/><path d="M49.062 130.089 634.938 130.089C639.943 130.089 644 134.149 644 139.158L644 154.106 40 154.106 40 139.158C40 134.149 44.0572 130.089 49.062 130.089Z" stroke="#31B186" stroke-width="1.99951" stroke-miterlimit="8" fill="#31B186" fill-rule="evenodd"/><text fill="#FFFFFF" font-family="Times New Roman,Times New Roman_MSFontService,sans-serif" font-weight="700" font-size="13" transform="matrix(1 0 0 1.00069 277.411 149)">Packages</text><text fill="#FFFFFF" font-family="Times New Roman,Times New Roman_MSFontService,sans-serif" font-weight="700" font-size="13" transform="matrix(1 0 0 1.00069 333.065 149)">and Features</text><text font-family="Times New Roman,Times New Roman_MSFontService,sans-serif" font-weight="700" font-size="13" transform="matrix(1 0 0 1.00069 102.304 169)">Data package</text><text font-family="Times New Roman,Times New Roman_MSFontService,sans-serif" font-weight="400" font-size="13" transform="matrix(1 0 0 1.00069 50.4591 188)">-</text><text font-family="Times New Roman,Times New Roman_MSFontService,sans-serif" font-weight="400" font-size="13" transform="matrix(1 0 0 1.00069 58.2905 188)">Dataset (multi</text><text font-family="Times New Roman,Times New Roman_MSFontService,sans-serif" font-weight="400" font-size="13" transform="matrix(1 0 0 1.00069 133.772 188)">-</text><text font-family="Times New Roman,Times New Roman_MSFontService,sans-serif" font-weight="400" font-size="13" transform="matrix(1 0 0 1.00069 138.271 188)">source, loading)</text><text font-family="Times New Roman,Times New Roman_MSFontService,sans-serif" font-weight="400" font-size="13" transform="matrix(1 0 0 1.00069 50.4591 204)">-</text><text font-family="Times New Roman,Times New Roman_MSFontService,sans-serif" font-weight="400" font-size="13" transform="matrix(1 0 0 1.00069 58.2905 204)">Scaling (Static, dynamic, sparse)</text><text font-family="Times New Roman,Times New Roman_MSFontService,sans-serif" font-weight="400" font-size="13" transform="matrix(1 0 0 1.00069 50.4591 220)">-</text><text font-family="Times New Roman,Times New Roman_MSFontService,sans-serif" font-weight="400" font-size="13" transform="matrix(1 0 0 1.00069 58.2905 220)">Splitting (Dual</text><text font-family="Times New Roman,Times New Roman_MSFontService,sans-serif" font-weight="400" font-size="13" transform="matrix(1 0 0 1.00069 137.604 220)">-</text><text font-family="Times New Roman,Times New Roman_MSFontService,sans-serif" font-weight="400" font-size="13" transform="matrix(1 0 0 1.00069 142.103 220)">boundary)</text><text font-family="Times New Roman,Times New Roman_MSFontService,sans-serif" font-weight="400" font-size="13" transform="matrix(1 0 0 1.00069 50.4591 236)">-</text><text font-family="Times New Roman,Times New Roman_MSFontService,sans-serif" font-weight="400" font-size="13" transform="matrix(1 0 0 1.00069 58.2905 236)">Masking (Static, dynamic)</text><text font-family="Times New Roman,Times New Roman_MSFontService,sans-serif" font-weight="700" font-size="13" transform="matrix(1 0 0 1.00069 294.247 169)">Model package</text><text font-family="Times New Roman,Times New Roman_MSFontService,sans-serif" font-weight="400" font-size="13" transform="matrix(1 0 0 1.00069 264.979 188)">-</text><text font-family="Times New Roman,Times New Roman_MSFontService,sans-serif" font-weight="400" font-size="13" transform="matrix(1 0 0 1.00069 272.811 188)">Base (Shapelet, DyT)</text><text font-family="Times New Roman,Times New Roman_MSFontService,sans-serif" font-weight="400" font-size="13" transform="matrix(1 0 0 1.00069 264.979 204)">-</text><text font-family="Times New Roman,Times New Roman_MSFontService,sans-serif" font-weight="400" font-size="13" transform="matrix(1 0 0 1.00069 272.811 204)">UTS/MTS (50+ models)</text><text font-family="Times New Roman,Times New Roman_MSFontService,sans-serif" font-weight="400" font-size="13" transform="matrix(1 0 0 1.00069 264.979 220)">-</text><text font-family="Times New Roman,Times New Roman_MSFontService,sans-serif" font-weight="400" font-size="13" transform="matrix(1 0 0 1.00069 272.811 220)">Fusible models and plugins</text><text font-family="Times New Roman,Times New Roman_MSFontService,sans-serif" font-weight="400" font-size="13" transform="matrix(1 0 0 1.00069 264.979 236)">-</text><text font-family="Times New Roman,Times New Roman_MSFontService,sans-serif" font-weight="400" font-size="13" transform="matrix(1 0 0 1.00069 272.811 236)">Generative models</text><text font-family="Times New Roman,Times New Roman_MSFontService,sans-serif" font-weight="700" font-size="13" transform="matrix(1 0 0 1.00069 499.313 169)">Metric package</text><text font-family="Times New Roman,Times New Roman_MSFontService,sans-serif" font-weight="400" font-size="13" transform="matrix(1 0 0 1.00069 465.838 193)">-</text><text font-family="Times New Roman,Times New Roman_MSFontService,sans-serif" font-weight="400" font-size="13" transform="matrix(1 0 0 1.00069 473.67 193)">Evaluator (metric manager)</text><text font-family="Times New Roman,Times New Roman_MSFontService,sans-serif" font-weight="400" font-size="13" transform="matrix(1 0 0 1.00069 465.838 209)">-</text><text font-family="Times New Roman,Times New Roman_MSFontService,sans-serif" font-weight="400" font-size="13" transform="matrix(1 0 0 1.00069 473.67 209)">Losses (sparse, aggregation)</text><text font-family="Times New Roman,Times New Roman_MSFontService,sans-serif" font-weight="400" font-size="13" transform="matrix(1 0 0 1.00069 465.838 225)">-</text><text font-family="Times New Roman,Times New Roman_MSFontService,sans-serif" font-weight="400" font-size="13" transform="matrix(1 0 0 1.00069 473.67 225)">Metrics (sparse, aggregation)</text><path d="M243 160.11 243 243.296" stroke="#DBDCDC" stroke-width="1.99951" stroke-miterlimit="8" stroke-dasharray="7.99805 5.99853" fill="none" fill-rule="evenodd"/><path d="M439 160.11 439 243.296" stroke="#DBDCDC" stroke-width="1.99951" stroke-miterlimit="8" stroke-dasharray="7.99805 5.99853" fill="none" fill-rule="evenodd"/><path d="M40 258.844C40 253.502 44.3281 249.171 49.667 249.171L634.333 249.171C639.672 249.171 644 253.502 644 258.844L644 353.575C644 358.918 639.672 363.249 634.333 363.249L49.667 363.249C44.3281 363.249 40 358.918 40 353.575Z" stroke="#F3A740" stroke-width="1.99951" stroke-miterlimit="8" fill="#F9FDFF" fill-rule="evenodd"/><path d="M49.062 250.171 634.938 250.171C639.943 250.171 644 254.231 644 259.24L644 274.188 40 274.188 40 259.24C40 254.231 44.0572 250.171 49.062 250.171Z" stroke="#F3A740" stroke-width="1.99951" stroke-miterlimit="8" fill="#F3A740" fill-rule="evenodd"/><text fill="#FFFFFF" font-family="Times New Roman,Times New Roman_MSFontService,sans-serif" font-weight="700" font-size="13" transform="matrix(1 0 0 1.00069 298.823 269)">Infrastructures</text><text font-family="Times New Roman,Times New Roman_MSFontService,sans-serif" font-weight="700" font-size="13" transform="matrix(1 0 0 1.00069 75.2778 293)">Data Sources &amp; Access</text><text font-family="Times New Roman,Times New Roman_MSFontService,sans-serif" font-weight="400" font-size="13" transform="matrix(1 0 0 1.00069 84.0748 319)">-</text><text font-family="Times New Roman,Times New Roman_MSFontService,sans-serif" font-weight="400" font-size="13" transform="matrix(1 0 0 1.00069 91.9062 319)">Built</text><text font-family="Times New Roman,Times New Roman_MSFontService,sans-serif" font-weight="400" font-size="13" transform="matrix(1 0 0 1.00069 118.4 319)">-</text><text font-family="Times New Roman,Times New Roman_MSFontService,sans-serif" font-weight="400" font-size="13" transform="matrix(1 0 0 1.00069 122.899 319)">in dataset</text><text font-family="Times New Roman,Times New Roman_MSFontService,sans-serif" font-weight="400" font-size="13" transform="matrix(1 0 0 1.00069 84.0748 335)">-</text><text font-family="Times New Roman,Times New Roman_MSFontService,sans-serif" font-weight="400" font-size="13" transform="matrix(1 0 0 1.00069 91.9062 335)">Local/remote Data</text><text font-family="Times New Roman,Times New Roman_MSFontService,sans-serif" font-weight="400" font-size="13" transform="matrix(1 0 0 1.00069 84.0748 351)">-</text><text font-family="Times New Roman,Times New Roman_MSFontService,sans-serif" font-weight="400" font-size="13" transform="matrix(1 0 0 1.00069 91.9062 351)">FAST community</text><text font-family="Times New Roman,Times New Roman_MSFontService,sans-serif" font-weight="700" font-size="13" transform="matrix(1 0 0 1.00069 282.051 293)">Training Utilities</text><text font-family="Times New Roman,Times New Roman_MSFontService,sans-serif" font-weight="400" font-size="13" transform="matrix(1 0 0 1.00069 282.677 320)">-</text><text font-family="Times New Roman,Times New Roman_MSFontService,sans-serif" font-weight="400" font-size="13" transform="matrix(1 0 0 1.00069 290.508 320)">Training pipeline</text><text font-family="Times New Roman,Times New Roman_MSFontService,sans-serif" font-weight="400" font-size="13" transform="matrix(1 0 0 1.00069 282.677 336)">-</text><text font-family="Times New Roman,Times New Roman_MSFontService,sans-serif" font-weight="400" font-size="13" transform="matrix(1 0 0 1.00069 290.508 336)">Reproducibility</text><text font-family="Times New Roman,Times New Roman_MSFontService,sans-serif" font-weight="400" font-size="13" transform="matrix(1 0 0 1.00069 282.677 352)">-</text><text font-family="Times New Roman,Times New Roman_MSFontService,sans-serif" font-weight="400" font-size="13" transform="matrix(1 0 0 1.00069 290.508 352)">Devices synergy</text><text font-family="Times New Roman,Times New Roman_MSFontService,sans-serif" font-weight="700" font-size="13" transform="matrix(1 0 0 1.00069 449.144 293)">Model Artifacts &amp; Management</text><text font-family="Times New Roman,Times New Roman_MSFontService,sans-serif" font-weight="400" font-size="13" transform="matrix(1 0 0 1.00069 496.656 318)">-</text><text font-family="Times New Roman,Times New Roman_MSFontService,sans-serif" font-weight="400" font-size="13" transform="matrix(1 0 0 1.00069 504.487 318)">Trained model</text><text font-family="Times New Roman,Times New Roman_MSFontService,sans-serif" font-weight="400" font-size="13" transform="matrix(1 0 0 1.00069 496.656 334)">-</text><text font-family="Times New Roman,Times New Roman_MSFontService,sans-serif" font-weight="400" font-size="13" transform="matrix(1 0 0 1.00069 504.487 334)">Configurations</text><text font-family="Times New Roman,Times New Roman_MSFontService,sans-serif" font-weight="400" font-size="13" transform="matrix(1 0 0 1.00069 496.656 350)">-</text><text font-family="Times New Roman,Times New Roman_MSFontService,sans-serif" font-weight="400" font-size="13" transform="matrix(1 0 0 1.00069 504.487 350)">Evaluation</text><path d="M243 282.193 243 365.38" stroke="#DBDCDC" stroke-width="1.99951" stroke-miterlimit="8" stroke-dasharray="7.99805 5.99853" fill="none" fill-rule="evenodd"/><path d="M439 282.193 439 365.38" stroke="#DBDCDC" stroke-width="1.99951" stroke-miterlimit="8" stroke-dasharray="7.99805 5.99853" fill="none" fill-rule="evenodd"/><text font-family="Times New Roman,Times New Roman_MSFontService,sans-serif" font-weight="700" font-size="13" transform="matrix(-1.83697e-16 -1.00137 0.999315 -1.83823e-16 14.8312 131)">Integration</text><text font-family="Times New Roman,Times New Roman_MSFontService,sans-serif" font-weight="700" font-size="13" transform="matrix(-1.83697e-16 -1.00137 0.999315 -1.83823e-16 15.2945 313)">Implementation</text><text font-family="Times New Roman,Times New Roman_MSFontService,sans-serif" font-weight="700" font-size="13" transform="matrix(6.12323e-17 1.00137 -0.999315 6.12743e-17 668.746 80)">Update</text><text font-family="Times New Roman,Times New Roman_MSFontService,sans-serif" font-weight="700" font-size="13" transform="matrix(6.12323e-17 1.00137 -0.999315 6.12743e-17 670.84 245)">Persistence</text></g></svg>