<svg width="707" height="344" xmlns="http://www.w3.org/2000/svg" xmlns:xlink="http://www.w3.org/1999/xlink" overflow="hidden"><defs><clipPath id="clip0"><rect x="0" y="0" width="707" height="344"/></clipPath></defs><g clip-path="url(#clip0)"><rect x="0" y="0" width="707" height="343.919" fill="#FFFFFF"/><path d="M2.50001 8.88165C2.50001 6.46112 4.46269 4.4989 6.88377 4.4989L701.116 4.4989C703.537 4.4989 705.5 6.46112 705.5 8.88165L705.5 108.091C705.5 110.511 703.537 112.473 701.116 112.473L6.88377 112.473C4.46269 112.473 2.50001 110.511 2.50001 108.091Z" stroke="#163E64" stroke-width="1.00024" stroke-miterlimit="8" fill="#77B0F8" fill-rule="evenodd"/><text font-family="Microsoft YaHei,Microsoft YaHei_MSFontService,sans-serif" font-weight="700" font-size="16" transform="matrix(1 0 0 0.999764 316.134 20)">Interface</text><path d="M8.49996 35.7614C8.49996 31.7474 11.7547 28.4933 15.7697 28.4933L184.23 28.4933C188.245 28.4933 191.5 31.7474 191.5 35.7614L191.5 102.206C191.5 106.22 188.245 109.474 184.23 109.474L15.7697 109.474C11.7547 109.474 8.49996 106.22 8.49996 102.206Z" stroke="#163E64" stroke-width="0.666824" stroke-miterlimit="8" fill="#F2F7FC" fill-rule="evenodd"/><path d="M201.5 34.8512C201.5 30.7877 204.795 27.4935 208.859 27.4935L471.141 27.4935C475.205 27.4935 478.5 30.7877 478.5 34.8512L478.5 102.117C478.5 106.18 475.205 109.474 471.141 109.474L208.859 109.474C204.795 109.474 201.5 106.18 201.5 102.117Z" stroke="#163E64" stroke-width="0.666824" stroke-miterlimit="8" fill="#F2F7FC" fill-rule="evenodd"/><text font-family="Microsoft YaHei,Microsoft YaHei_MSFontService,sans-serif" font-weight="700" font-size="15" transform="matrix(1 0 0 0.999764 40.7823 43)">User Interaction</text><text font-family="Microsoft YaHei,Microsoft YaHei_MSFontService,sans-serif" font-weight="700" font-size="15" transform="matrix(1 0 0 0.999764 283.089 43)">High</text><text font-family="Microsoft YaHei,Microsoft YaHei_MSFontService,sans-serif" font-weight="700" font-size="15" transform="matrix(1 0 0 0.999764 318.598 43)">-</text><text font-family="Microsoft YaHei,Microsoft YaHei_MSFontService,sans-serif" font-weight="700" font-size="15" transform="matrix(1 0 0 0.999764 324.933 43)">Level API</text><path d="M488.5 34.2313C488.5 30.5101 491.517 27.4935 495.239 27.4935L693.761 27.4935C697.483 27.4935 700.5 30.5101 700.5 34.2313L700.5 101.737C700.5 105.458 697.483 108.474 693.761 108.474L495.239 108.474C491.517 108.474 488.5 105.458 488.5 101.737Z" stroke="#163E64" stroke-width="0.666824" stroke-miterlimit="8" fill="#F2F7FC" fill-rule="evenodd"/><text font-family="Microsoft YaHei,Microsoft YaHei_MSFontService,sans-serif" font-weight="700" font-size="15" transform="matrix(1 0 0 0.999764 495.233 43)">Application &amp; Deployment</text><text font-family="Arial,Arial_MSFontService,sans-serif" font-weight="400" font-size="12" transform="matrix(1 0 0 0.999764 36.8649 65)">•</text><text font-family="Microsoft YaHei,Microsoft YaHei_MSFontService,sans-serif" font-weight="400" font-size="12" transform="matrix(1 0 0 0.999764 54.8691 65)">Forecasting Tasks</text><text font-family="Arial,Arial_MSFontService,sans-serif" font-weight="400" font-size="12" transform="matrix(1 0 0 0.999764 36.8649 81)">•</text><text font-family="Microsoft YaHei,Microsoft YaHei_MSFontService,sans-serif" font-weight="400" font-size="12" transform="matrix(1 0 0 0.999764 54.8691 81)">Prototyping</text><text font-family="Arial,Arial_MSFontService,sans-serif" font-weight="400" font-size="12" transform="matrix(1 0 0 0.999764 36.8649 97)">•</text><text font-family="Microsoft YaHei,Microsoft YaHei_MSFontService,sans-serif" font-weight="400" font-size="12" transform="matrix(1 0 0 0.999764 54.8691 97)">Customization</text><text font-family="Arial,Arial_MSFontService,sans-serif" font-weight="400" font-size="12" transform="matrix(1 0 0 0.999764 205.972 58)">•</text><text font-family="Microsoft YaHei,Microsoft YaHei_MSFontService,sans-serif" font-weight="400" font-size="12" transform="matrix(1 0 0 0.999764 223.976 58)">Modeler</text><text font-family="Microsoft YaHei,Microsoft YaHei_MSFontService,sans-serif" font-weight="400" font-size="12" transform="matrix(1 0 0 0.999764 223.476 72)">(</text><text font-family="Consolas,Consolas_MSFontService,sans-serif" font-weight="700" font-size="12" transform="matrix(1 0 0 0.999764 227.477 72)">modeler.py</text><text font-family="Microsoft YaHei,Microsoft YaHei_MSFontService,sans-serif" font-weight="400" font-size="12" transform="matrix(1 0 0 0.999764 294.159 72)">)</text><text font-family="Arial,Arial_MSFontService,sans-serif" font-weight="400" font-size="12" transform="matrix(1 0 0 0.999764 205.972 85)">•</text><text font-family="Microsoft YaHei,Microsoft YaHei_MSFontService,sans-serif" font-weight="400" font-size="12" transform="matrix(1 0 0 0.999764 223.976 85)">Evaluator Class</text><text font-family="Microsoft YaHei,Microsoft YaHei_MSFontService,sans-serif" font-weight="400" font-size="12" transform="matrix(1 0 0 0.999764 223.476 98)">(</text><text font-family="Consolas,Consolas_MSFontService,sans-serif" font-weight="700" font-size="12" transform="matrix(1 0 0 0.999764 227.477 98)">metric/evaluator.py</text><text font-family="Microsoft YaHei,Microsoft YaHei_MSFontService,sans-serif" font-weight="400" font-size="12" transform="matrix(1 0 0 0.999764 354.173 98)">)</text><text font-family="Arial,Arial_MSFontService,sans-serif" font-weight="400" font-size="12" transform="matrix(1 0 0 0.999764 360.141 59)">•</text><text font-family="Microsoft YaHei,Microsoft YaHei_MSFontService,sans-serif" font-weight="400" font-size="12" transform="matrix(1 0 0 0.999764 378.145 59)">Trainer Class</text><text font-family="Microsoft YaHei,Microsoft YaHei_MSFontService,sans-serif" font-weight="400" font-size="12" transform="matrix(1 0 0 0.999764 378.145 73)">(</text><text font-family="Consolas,Consolas_MSFontService,sans-serif" font-weight="700" font-size="12" transform="matrix(1 0 0 0.999764 382.146 73)">modeler.py</text><text font-family="Microsoft YaHei,Microsoft YaHei_MSFontService,sans-serif" font-weight="400" font-size="12" transform="matrix(1 0 0 0.999764 448.828 73)">)</text><text font-family="Arial,Arial_MSFontService,sans-serif" font-weight="400" font-size="12" transform="matrix(1 0 0 0.999764 360.141 86)">•</text><text font-family="Microsoft YaHei,Microsoft YaHei_MSFontService,sans-serif" font-weight="400" font-size="12" transform="matrix(1 0 0 0.999764 378.145 86)">Visualization</text><text font-family="Microsoft YaHei,Microsoft YaHei_MSFontService,sans-serif" font-weight="400" font-size="12" transform="matrix(1 0 0 0.999764 377.645 99)">(</text><text font-family="Consolas,Consolas_MSFontService,sans-serif" font-weight="700" font-size="12" transform="matrix(1 0 0 0.999764 381.646 99)">visualize.py</text><text font-family="Microsoft YaHei,Microsoft YaHei_MSFontService,sans-serif" font-weight="400" font-size="12" transform="matrix(1 0 0 0.999764 461.665 99)">)</text><text font-family="Arial,Arial_MSFontService,sans-serif" font-weight="400" font-size="12" transform="matrix(1 0 0 0.999764 517.778 59)">•</text><text font-family="Microsoft YaHei,Microsoft YaHei_MSFontService,sans-serif" font-weight="400" font-size="12" transform="matrix(1 0 0 0.999764 535.782 59)">Real</text><text font-family="Microsoft YaHei,Microsoft YaHei_MSFontService,sans-serif" font-weight="400" font-size="12" transform="matrix(1 0 0 0.999764 560.288 59)">-</text><text font-family="Microsoft YaHei,Microsoft YaHei_MSFontService,sans-serif" font-weight="400" font-size="12" transform="matrix(1 0 0 0.999764 565.456 59)">time Forecasting</text><text font-family="Arial,Arial_MSFontService,sans-serif" font-weight="400" font-size="12" transform="matrix(1 0 0 0.999764 517.778 73)">•</text><text font-family="Microsoft YaHei,Microsoft YaHei_MSFontService,sans-serif" font-weight="400" font-size="12" transform="matrix(1 0 0 0.999764 535.782 73)">Custom Solutions</text><text font-family="Arial,Arial_MSFontService,sans-serif" font-weight="400" font-size="12" transform="matrix(1 0 0 0.999764 517.778 86)">•</text><text font-family="Microsoft YaHei,Microsoft YaHei_MSFontService,sans-serif" font-weight="400" font-size="12" transform="matrix(1 0 0 0.999764 535.782 86)">Research Prototyping</text><text font-family="Arial,Arial_MSFontService,sans-serif" font-weight="400" font-size="12" transform="matrix(1 0 0 0.999764 517.778 99)">•</text><text font-family="Microsoft YaHei,Microsoft YaHei_MSFontService,sans-serif" font-weight="400" font-size="12" transform="matrix(1 0 0 0.999764 535.782 99)">Generative Modeling</text><path d="M2.50001 122.896C2.50001 120.453 4.48099 118.472 6.92465 118.472L702.075 118.472C704.519 118.472 706.5 120.453 706.5 122.896L706.5 223.023C706.5 225.466 704.519 227.446 702.075 227.446L6.92465 227.446C4.48099 227.446 2.50001 225.466 2.50001 223.023Z" stroke="#13501B" stroke-width="1.00024" stroke-miterlimit="8" fill="#A2DB7D" fill-rule="evenodd"/><text font-family="Microsoft YaHei,Microsoft YaHei_MSFontService,sans-serif" font-weight="700" font-size="16" transform="matrix(1 0 0 0.999764 193.238 134)">Multi</text><text font-family="Microsoft YaHei,Microsoft YaHei_MSFontService,sans-serif" font-weight="700" font-size="16" transform="matrix(1 0 0 0.999764 236.082 134)">-</text><text font-family="Microsoft YaHei,Microsoft YaHei_MSFontService,sans-serif" font-weight="700" font-size="16" transform="matrix(1 0 0 0.999764 243.083 134)">level Workflow or Implementation</text><path d="M8.49996 148.824C8.49996 144.761 11.7949 141.467 15.8594 141.467L185.141 141.467C189.205 141.467 192.5 144.761 192.5 148.824L192.5 216.09C192.5 220.153 189.205 223.447 185.141 223.447L15.8594 223.447C11.7949 223.447 8.49996 220.153 8.49996 216.09Z" stroke="#13501B" stroke-width="0.666824" stroke-miterlimit="8" fill="#E7F7E1" fill-rule="evenodd"/><path d="M210.5 148.824C210.5 144.761 213.795 141.467 217.859 141.467L461.141 141.467C465.205 141.467 468.5 144.761 468.5 148.824L468.5 216.09C468.5 220.153 465.205 223.447 461.141 223.447L217.859 223.447C213.795 223.447 210.5 220.153 210.5 216.09Z" stroke="#13501B" stroke-width="0.666824" stroke-miterlimit="8" fill="#E7F7E1" fill-rule="evenodd"/><text font-family="Microsoft YaHei,Microsoft YaHei_MSFontService,sans-serif" font-weight="700" font-size="15" transform="matrix(1 0 0 0.999764 83.1024 157)">Data</text><text font-family="Microsoft YaHei,Microsoft YaHei_MSFontService,sans-serif" font-weight="700" font-size="15" transform="matrix(1 0 0 0.999764 318.108 157)">Model</text><path d="M548.5 148.287C548.5 144.52 551.555 141.467 555.322 141.467L693.678 141.467C697.446 141.467 700.5 144.52 700.5 148.287L700.5 216.627C700.5 220.394 697.446 223.447 693.678 223.447L555.322 223.447C551.555 223.447 548.5 220.394 548.5 216.627Z" stroke="#13501B" stroke-width="0.666824" stroke-miterlimit="8" fill="#E7F7E1" fill-rule="evenodd"/><text font-family="Microsoft YaHei,Microsoft YaHei_MSFontService,sans-serif" font-weight="700" font-size="15" transform="matrix(1 0 0 0.999764 601.701 157)">Metric</text><text font-family="Arial,Arial_MSFontService,sans-serif" font-weight="400" font-size="12" transform="matrix(1 0 0 0.999764 20.8877 169)">•</text><text font-family="Microsoft YaHei,Microsoft YaHei_MSFontService,sans-serif" font-weight="400" font-size="12" transform="matrix(1 0 0 0.999764 38.8919 169)">Dataset Classes</text><text font-family="Microsoft YaHei,Microsoft YaHei_MSFontService,sans-serif" font-weight="400" font-size="12" transform="matrix(1 0 0 0.999764 38.3918 185)">(SST, SMT, MMT, BDP)</text><text font-family="Arial,Arial_MSFontService,sans-serif" font-weight="400" font-size="12" transform="matrix(1 0 0 0.999764 20.8877 201)">•</text><text font-family="Microsoft YaHei,Microsoft YaHei_MSFontService,sans-serif" font-weight="400" font-size="12" transform="matrix(1 0 0 0.999764 38.8919 201)">Scaling</text><text font-family="Arial,Arial_MSFontService,sans-serif" font-weight="400" font-size="12" transform="matrix(1 0 0 0.999764 20.8877 217)">•</text><text font-family="Microsoft YaHei,Microsoft YaHei_MSFontService,sans-serif" font-weight="400" font-size="12" transform="matrix(1 0 0 0.999764 38.8919 217)">Splitting</text><text font-family="Arial,Arial_MSFontService,sans-serif" font-weight="400" font-size="12" transform="matrix(1 0 0 0.999764 102.508 203)">•</text><text font-family="Microsoft YaHei,Microsoft YaHei_MSFontService,sans-serif" font-weight="400" font-size="12" transform="matrix(1 0 0 0.999764 120.512 203)">Patching</text><text font-family="Arial,Arial_MSFontService,sans-serif" font-weight="400" font-size="12" transform="matrix(1 0 0 0.999764 219.334 176)">•</text><text font-family="Microsoft YaHei,Microsoft YaHei_MSFontService,sans-serif" font-weight="400" font-size="12" transform="matrix(1 0 0 0.999764 237.339 176)">Base Components</text><text font-family="Arial,Arial_MSFontService,sans-serif" font-weight="400" font-size="12" transform="matrix(1 0 0 0.999764 219.334 192)">•</text><text font-family="Microsoft YaHei,Microsoft YaHei_MSFontService,sans-serif" font-weight="400" font-size="12" transform="matrix(1 0 0 0.999764 237.339 192)">Generative Models</text><text font-family="Arial,Arial_MSFontService,sans-serif" font-weight="400" font-size="12" transform="matrix(1 0 0 0.999764 219.334 208)">•</text><text font-family="Microsoft YaHei,Microsoft YaHei_MSFontService,sans-serif" font-weight="400" font-size="12" transform="matrix(1 0 0 0.999764 237.339 208)">Fusion Models</text><text font-family="Arial,Arial_MSFontService,sans-serif" font-weight="400" font-size="12" transform="matrix(1 0 0 0.999764 361.128 176)">•</text><text font-family="Microsoft YaHei,Microsoft YaHei_MSFontService,sans-serif" font-weight="400" font-size="12" transform="matrix(1 0 0 0.999764 379.132 176)">MTS Models</text><text font-family="Arial,Arial_MSFontService,sans-serif" font-weight="400" font-size="12" transform="matrix(1 0 0 0.999764 361.128 192)">•</text><text font-family="Microsoft YaHei,Microsoft YaHei_MSFontService,sans-serif" font-weight="400" font-size="12" transform="matrix(1 0 0 0.999764 379.132 192)">UTS Models</text><text font-family="Arial,Arial_MSFontService,sans-serif" font-weight="400" font-size="12" transform="matrix(1 0 0 0.999764 565.176 176)">•</text><text font-family="Microsoft YaHei,Microsoft YaHei_MSFontService,sans-serif" font-weight="400" font-size="12" transform="matrix(1 0 0 0.999764 583.18 176)">Standard Metrics</text><text font-family="Arial,Arial_MSFontService,sans-serif" font-weight="400" font-size="12" transform="matrix(1 0 0 0.999764 565.176 192)">•</text><text font-family="Microsoft YaHei,Microsoft YaHei_MSFontService,sans-serif" font-weight="400" font-size="12" transform="matrix(1 0 0 0.999764 583.18 192)">Sparse Metrics</text><text font-family="Arial,Arial_MSFontService,sans-serif" font-weight="400" font-size="12" transform="matrix(1 0 0 0.999764 565.176 208)">•</text><text font-family="Microsoft YaHei,Microsoft YaHei_MSFontService,sans-serif" font-weight="400" font-size="12" transform="matrix(1 0 0 0.999764 583.18 208)">Evaluator Class</text><path d="M192 180.957 204.003 180.957 204.003 182.957 192 182.957ZM202.669 177.957 210.671 181.957 202.669 185.957Z"/><path d="M468 159.962 541.351 159.962 541.351 161.962 468 161.962ZM540.017 156.962 548.019 160.962 540.017 164.962Z"/><path d="M1.31673e-06-1 73.0667-0.999904 73.0667 1.0001-1.31673e-06 1ZM71.7333-3.99991 79.7333 0.000104987 71.7333 4.00009Z" transform="matrix(-1.00024 0 0 1 548.752 203.952)"/><text font-family="Microsoft YaHei,Microsoft YaHei_MSFontService,sans-serif" font-weight="400" font-size="12" transform="matrix(1 0 0 0.999764 474.425 181)">Feedback &amp;</text><text font-family="Microsoft YaHei,Microsoft YaHei_MSFontService,sans-serif" font-weight="400" font-size="12" transform="matrix(1 0 0 0.999764 481.259 197)">Adjusting</text><path d="M2.50001 235.869C2.50001 233.426 4.48099 231.445 6.92465 231.445L702.075 231.445C704.519 231.445 706.5 233.426 706.5 235.869L706.5 335.996C706.5 338.439 704.519 340.42 702.075 340.42L6.92465 340.42C4.48099 340.42 2.50001 338.439 2.50001 335.996Z" stroke="#80350E" stroke-width="1.00024" stroke-miterlimit="8" fill="#FBB055" fill-rule="evenodd"/><text font-family="Microsoft YaHei,Microsoft YaHei_MSFontService,sans-serif" font-weight="700" font-size="16" transform="matrix(1 0 0 0.999764 301.181 248)">Infrastructure</text><path d="M8.49996 261.798C8.49996 257.734 11.7949 254.44 15.8594 254.44L185.141 254.44C189.205 254.44 192.5 257.734 192.5 261.798L192.5 329.063C192.5 333.127 189.205 336.421 185.141 336.421L15.8594 336.421C11.7949 336.421 8.49996 333.127 8.49996 329.063Z" stroke="#80350E" stroke-width="0.666824" stroke-miterlimit="8" fill="#FDEFE7" fill-rule="evenodd"/><path d="M210.5 261.798C210.5 257.734 213.795 254.44 217.86 254.44L401.14 254.44C405.205 254.44 408.5 257.734 408.5 261.798L408.5 329.063C408.5 333.126 405.205 336.421 401.14 336.421L217.86 336.421C213.795 336.421 210.5 333.126 210.5 329.063Z" stroke="#80350E" stroke-width="0.666824" stroke-miterlimit="8" fill="#FDEFE7" fill-rule="evenodd"/><text font-family="Microsoft YaHei,Microsoft YaHei_MSFontService,sans-serif" font-weight="700" font-size="15" transform="matrix(1 0 0 0.999764 16.8368 270)">Data Sources &amp; Access</text><text font-family="Microsoft YaHei,Microsoft YaHei_MSFontService,sans-serif" font-weight="700" font-size="15" transform="matrix(1 0 0 0.999764 242.463 270)">Training Utilities</text><path d="M426.5 261.261C426.5 257.494 429.555 254.44 433.322 254.44L693.678 254.44C697.446 254.44 700.5 257.494 700.5 261.261L700.5 329.6C700.5 333.367 697.446 336.421 693.678 336.421L433.322 336.421C429.555 336.421 426.5 333.367 426.5 329.6Z" stroke="#80350E" stroke-width="0.666824" stroke-miterlimit="8" fill="#FDEFE7" fill-rule="evenodd"/><text font-family="Microsoft YaHei,Microsoft YaHei_MSFontService,sans-serif" font-weight="700" font-size="15" transform="matrix(1 0 0 0.999764 447.051 271)">Model Artifacts &amp; Management</text><text font-family="Arial,Arial_MSFontService,sans-serif" font-weight="400" font-size="12" transform="matrix(1 0 0 0.999764 49.0549 295)">•</text><text font-family="Microsoft YaHei,Microsoft YaHei_MSFontService,sans-serif" font-weight="400" font-size="12" transform="matrix(1 0 0 0.999764 67.0592 295)">Local Data</text><text font-family="Arial,Arial_MSFontService,sans-serif" font-weight="400" font-size="12" transform="matrix(1 0 0 0.999764 49.0549 317)">•</text><text font-family="Microsoft YaHei,Microsoft YaHei_MSFontService,sans-serif" font-weight="400" font-size="12" transform="matrix(1 0 0 0.999764 67.0592 317)">Remote Data</text><text font-family="Arial,Arial_MSFontService,sans-serif" font-weight="400" font-size="12" transform="matrix(1 0 0 0.999764 218.694 291)">•</text><text font-family="Microsoft YaHei,Microsoft YaHei_MSFontService,sans-serif" font-weight="400" font-size="12" transform="matrix(1 0 0 0.999764 236.699 291)">Training Algorithms</text><text font-family="Arial,Arial_MSFontService,sans-serif" font-weight="400" font-size="12" transform="matrix(1 0 0 0.999764 218.694 307)">•</text><text font-family="Microsoft YaHei,Microsoft YaHei_MSFontService,sans-serif" font-weight="400" font-size="12" transform="matrix(1 0 0 0.999764 236.699 307)">Reproducibility</text><text font-family="Arial,Arial_MSFontService,sans-serif" font-weight="400" font-size="12" transform="matrix(1 0 0 0.999764 218.694 323)">•</text><text font-family="Microsoft YaHei,Microsoft YaHei_MSFontService,sans-serif" font-weight="400" font-size="12" transform="matrix(1 0 0 0.999764 236.699 323)">Visualization</text><text font-family="Arial,Arial_MSFontService,sans-serif" font-weight="400" font-size="12" transform="matrix(1 0 0 0.999764 444.881 297)">•</text><text font-family="Microsoft YaHei,Microsoft YaHei_MSFontService,sans-serif" font-weight="400" font-size="12" transform="matrix(1 0 0 0.999764 462.885 297)">Trained Model</text><text font-family="Arial,Arial_MSFontService,sans-serif" font-weight="400" font-size="12" transform="matrix(1 0 0 0.999764 444.881 319)">•</text><text font-family="Microsoft YaHei,Microsoft YaHei_MSFontService,sans-serif" font-weight="400" font-size="12" transform="matrix(1 0 0 0.999764 462.885 319)">Configurations</text><text font-family="Arial,Arial_MSFontService,sans-serif" font-weight="400" font-size="12" transform="matrix(1 0 0 0.999764 561.708 297)">•</text><text font-family="Microsoft YaHei,Microsoft YaHei_MSFontService,sans-serif" font-weight="400" font-size="12" transform="matrix(1 0 0 0.999764 579.713 297)">Checkpoints</text><text font-family="Arial,Arial_MSFontService,sans-serif" font-weight="400" font-size="12" transform="matrix(1 0 0 0.999764 561.708 319)">•</text><text font-family="Microsoft YaHei,Microsoft YaHei_MSFontService,sans-serif" font-weight="400" font-size="12" transform="matrix(1 0 0 0.999764 579.713 319)">Evaluation Results</text><text font-family="Arial,Arial_MSFontService,sans-serif" font-weight="400" font-size="12" transform="matrix(1 0 0 0.999764 319.519 322)">•</text><text font-family="Microsoft YaHei,Microsoft YaHei_MSFontService,sans-serif" font-weight="400" font-size="12" transform="matrix(1 0 0 0.999764 337.523 322)">Fine</text><text font-family="Microsoft YaHei,Microsoft YaHei_MSFontService,sans-serif" font-weight="400" font-size="12" transform="matrix(1 0 0 0.999764 361.195 322)">-</text><text font-family="Microsoft YaHei,Microsoft YaHei_MSFontService,sans-serif" font-weight="400" font-size="12" transform="matrix(1 0 0 0.999764 366.363 322)">tuning</text></g></svg>