<svg width="839" height="454" xmlns="http://www.w3.org/2000/svg" xmlns:xlink="http://www.w3.org/1999/xlink" overflow="hidden"><defs><clipPath id="clip0"><rect x="0" y="0" width="839" height="454"/></clipPath></defs><g clip-path="url(#clip0)"><rect x="0" y="0" width="839" height="454.501" fill="#FFFFFF"/><path d="M760.5 287.555C760.5 285.488 762.174 283.813 764.238 283.813L810.762 283.813C812.827 283.813 814.5 285.488 814.5 287.555L814.5 382.183C814.5 384.25 812.827 385.925 810.762 385.925L764.238 385.925C762.174 385.925 760.5 384.25 760.5 382.183Z" stroke="#4EA72E" stroke-width="0.666667" stroke-miterlimit="8" fill="none" fill-rule="evenodd"/><rect x="754" y="280.309" width="38" height="111.122" fill="#FFFFFF"/><path d="M2.57253e-06-0.333333 9.60357-0.333259 9.60357 0.333407-2.57253e-06 0.333333ZM8.27027-3.99994 13.6036 0.000104987 8.2702 4.00006Z" fill="#4EA72E" transform="matrix(-1 0 0 1.0011 806.104 385.925)"/><path d="M761.5 73.3187C761.5 71.252 763.174 69.5767 765.238 69.5767L811.762 69.5767C813.827 69.5767 815.5 71.252 815.5 73.3187L815.5 167.947C815.5 170.014 813.827 171.689 811.762 171.689L765.238 171.689C763.174 171.689 761.5 170.014 761.5 167.947Z" stroke="#4EA72E" stroke-width="0.666667" stroke-miterlimit="8" fill="none" fill-rule="evenodd"/><rect x="755" y="66.0728" width="38" height="111.122" fill="#FFFFFF"/><path d="M2.57253e-06-0.333333 9.60357-0.333259 9.60357 0.333407-2.57253e-06 0.333333ZM8.27027-3.99994 13.6036 0.000104987 8.2702 4.00006Z" fill="#4EA72E" transform="matrix(-1 0 0 1.0011 807.104 171.689)"/><path d="M31.5001 75.3902C31.5001 73.2852 33.2045 71.5789 35.3071 71.5789L82.693 71.5789C84.7956 71.5789 86.5 73.2852 86.5 75.3902L86.5 170.881C86.5 172.986 84.7956 174.692 82.693 174.692L35.3071 174.692C33.2045 174.692 31.5001 172.986 31.5001 170.881Z" stroke="#4EA72E" stroke-width="0.666667" stroke-miterlimit="8" fill="none" fill-rule="evenodd"/><rect x="51" y="67.0739" width="38" height="111.122" fill="#FFFFFF"/><path d="M38.5001 71.2452 49.3117 71.2453 49.3117 71.9127 38.5 71.9126ZM47.9784 67.5745 53.3117 71.579 47.9783 75.5834Z" fill="#4EA72E"/><path d="M30.5001 284.621C30.5001 282.516 32.2045 280.809 34.3071 280.809L81.693 280.809C83.7956 280.809 85.5 282.516 85.5 284.621L85.5 380.112C85.5 382.217 83.7956 383.923 81.693 383.923L34.3071 383.923C32.2045 383.923 30.5001 382.217 30.5001 380.112Z" stroke="#4EA72E" stroke-width="0.666667" stroke-miterlimit="8" fill="none" fill-rule="evenodd"/><rect x="51" y="276.304" width="37" height="111.122" fill="#FFFFFF"/><path d="M37.5001 280.476 48.3117 280.476 48.3117 281.143 37.5 281.143ZM46.9784 276.805 52.3117 280.809 46.9783 284.814Z" fill="#4EA72E"/><path d="M52 19.979C52 13.3681 57.3533 8.00882 63.957 8.00882L780.043 8.00882C786.647 8.00882 792 13.3681 792 19.979L792 137.194C792 143.805 786.647 149.164 780.043 149.164L63.957 149.164C57.3533 149.164 52 143.805 52 137.194Z" stroke="#4E87E6" stroke-width="2" stroke-miterlimit="8" fill="#F9FDFF" fill-rule="evenodd"/><path d="M63.3274 9.00992 780.673 9.00992C786.929 9.00992 792 14.087 792 20.3499L792 39.043 52 39.043 52 20.3499C52 14.087 57.0715 9.00992 63.3274 9.00992Z" stroke="#4E87E6" stroke-width="2" stroke-miterlimit="8" fill="#4E87E6" fill-rule="evenodd"/><text fill="#FFFFFF" font-family="Times New Roman,Times New Roman_MSFontService,sans-serif" font-weight="700" font-size="16" transform="matrix(1 0 0 1.0011 330.507 31)">Interfaces and Applications</text><text font-family="Times New Roman,Times New Roman_MSFontService,sans-serif" font-weight="700" font-size="16" transform="matrix(1 0 0 1.0011 120.915 54)">User Interaction</text><text font-family="Times New Roman,Times New Roman_MSFontService,sans-serif" font-weight="400" font-size="16" transform="matrix(1 0 0 1.0011 64.3328 85)">-</text><text font-family="Times New Roman,Times New Roman_MSFontService,sans-serif" font-weight="400" font-size="16" transform="matrix(1 0 0 1.0011 73.3328 85)">Forecasting</text><text font-family="Times New Roman,Times New Roman_MSFontService,sans-serif" font-weight="400" font-size="16" transform="matrix(1 0 0 1.0011 64.3328 104)">-</text><text font-family="Times New Roman,Times New Roman_MSFontService,sans-serif" font-weight="400" font-size="16" transform="matrix(1 0 0 1.0011 73.3328 104)">Imputation</text><text font-family="Times New Roman,Times New Roman_MSFontService,sans-serif" font-weight="400" font-size="16" transform="matrix(1 0 0 1.0011 64.3328 122)">-</text><text font-family="Times New Roman,Times New Roman_MSFontService,sans-serif" font-weight="400" font-size="16" transform="matrix(1 0 0 1.0011 73.3328 122)">Ensemble</text><text font-family="Times New Roman,Times New Roman_MSFontService,sans-serif" font-weight="700" font-size="16" transform="matrix(1 0 0 1.0011 363.482 54)">High</text><text font-family="Times New Roman,Times New Roman_MSFontService,sans-serif" font-weight="700" font-size="16" transform="matrix(1 0 0 1.0011 396.482 54)">-</text><text font-family="Times New Roman,Times New Roman_MSFontService,sans-serif" font-weight="700" font-size="16" transform="matrix(1 0 0 1.0011 401.648 54)">Level API</text><text font-family="Times New Roman,Times New Roman_MSFontService,sans-serif" font-weight="400" font-size="16" transform="matrix(1 0 0 1.0011 315.768 75)">-</text><text font-family="Times New Roman,Times New Roman_MSFontService,sans-serif" font-weight="400" font-size="16" transform="matrix(1 0 0 1.0011 324.768 75)">Processing</text><text font-family="Times New Roman,Times New Roman_MSFontService,sans-serif" font-weight="400" font-size="16" transform="matrix(1 0 0 1.0011 327.268 94)">(</text><text font-family="Times New Roman,Times New Roman_MSFontService,sans-serif" font-weight="400" font-size="16" transform="matrix(1 0 0 1.0011 332.435 94)">load.py</text><text font-family="Times New Roman,Times New Roman_MSFontService,sans-serif" font-weight="400" font-size="16" transform="matrix(1 0 0 1.0011 378.768 94)">)</text><text font-family="Times New Roman,Times New Roman_MSFontService,sans-serif" font-weight="400" font-size="16" transform="matrix(1 0 0 1.0011 315.768 112)">-</text><text font-family="Times New Roman,Times New Roman_MSFontService,sans-serif" font-weight="400" font-size="16" transform="matrix(1 0 0 1.0011 324.768 112)">Model</text><text font-family="Times New Roman,Times New Roman_MSFontService,sans-serif" font-weight="400" font-size="16" transform="matrix(1 0 0 1.0011 327.268 131)">(modelers)</text><text font-family="Times New Roman,Times New Roman_MSFontService,sans-serif" font-weight="700" font-size="16" transform="matrix(1 0 0 1.0011 627.687 54)">Application</text><text font-family="Times New Roman,Times New Roman_MSFontService,sans-serif" font-weight="400" font-size="16" transform="matrix(1 0 0 1.0011 558.893 78)">-</text><text font-family="Times New Roman,Times New Roman_MSFontService,sans-serif" font-weight="400" font-size="16" transform="matrix(1 0 0 1.0011 567.893 78)">Sparse forecasting (ITSF,</text><text font-family="Times New Roman,Times New Roman_MSFontService,sans-serif" font-weight="400" font-size="16" transform="matrix(1 0 0 1.0011 730.727 78)">pKa</text><text font-family="Times New Roman,Times New Roman_MSFontService,sans-serif" font-weight="400" font-size="16" transform="matrix(1 0 0 1.0011 756.56 78)">)</text><text font-family="Times New Roman,Times New Roman_MSFontService,sans-serif" font-weight="400" font-size="16" transform="matrix(1 0 0 1.0011 558.893 97)">-</text><text font-family="Times New Roman,Times New Roman_MSFontService,sans-serif" font-weight="400" font-size="16" transform="matrix(1 0 0 1.0011 567.893 97)">Personalization forecasting</text><text font-family="Times New Roman,Times New Roman_MSFontService,sans-serif" font-weight="400" font-size="16" transform="matrix(1 0 0 1.0011 558.893 115)">-</text><text font-family="Times New Roman,Times New Roman_MSFontService,sans-serif" font-weight="400" font-size="16" transform="matrix(1 0 0 1.0011 567.893 115)">Online/offline forecasting</text><text font-family="Times New Roman,Times New Roman_MSFontService,sans-serif" font-weight="400" font-size="16" transform="matrix(1 0 0 1.0011 558.893 134)">-</text><text font-family="Times New Roman,Times New Roman_MSFontService,sans-serif" font-weight="400" font-size="16" transform="matrix(1 0 0 1.0011 567.893 134)">LLM</text><text font-family="Times New Roman,Times New Roman_MSFontService,sans-serif" font-weight="400" font-size="16" transform="matrix(1 0 0 1.0011 600.727 134)">-</text><text font-family="Times New Roman,Times New Roman_MSFontService,sans-serif" font-weight="400" font-size="16" transform="matrix(1 0 0 1.0011 605.893 134)">inspired (alignment</text><text font-family="Times New Roman,Times New Roman_MSFontService,sans-serif" font-weight="400" font-size="16" transform="matrix(1 0 0 1.0011 727.393 134)">-</text><text font-family="Times New Roman,Times New Roman_MSFontService,sans-serif" font-weight="400" font-size="16" transform="matrix(1 0 0 1.0011 732.56 134)">free)</text><path d="M300 46.0507 300 149.125" stroke="#DBDCDC" stroke-width="2" stroke-miterlimit="8" stroke-dasharray="8 6" fill="none" fill-rule="evenodd"/><text font-family="Times New Roman,Times New Roman_MSFontService,sans-serif" font-weight="400" font-size="16" transform="matrix(1 0 0 1.0011 172.088 85)">-</text><text font-family="Times New Roman,Times New Roman_MSFontService,sans-serif" font-weight="400" font-size="16" transform="matrix(1 0 0 1.0011 181.088 85)">Prototyping</text><text font-family="Times New Roman,Times New Roman_MSFontService,sans-serif" font-weight="400" font-size="16" transform="matrix(1 0 0 1.0011 172.088 104)">-</text><text font-family="Times New Roman,Times New Roman_MSFontService,sans-serif" font-weight="400" font-size="16" transform="matrix(1 0 0 1.0011 181.088 104)">Customization</text><text font-family="Times New Roman,Times New Roman_MSFontService,sans-serif" font-weight="400" font-size="16" transform="matrix(1 0 0 1.0011 172.088 122)">-</text><text font-family="Times New Roman,Times New Roman_MSFontService,sans-serif" font-weight="400" font-size="16" transform="matrix(1 0 0 1.0011 181.088 122)">Examples</text><text font-family="Times New Roman,Times New Roman_MSFontService,sans-serif" font-weight="400" font-size="16" transform="matrix(1 0 0 1.0011 426.844 75)">-</text><text font-family="Times New Roman,Times New Roman_MSFontService,sans-serif" font-weight="400" font-size="16" transform="matrix(1 0 0 1.0011 435.844 75)">Evaluator</text><text font-family="Times New Roman,Times New Roman_MSFontService,sans-serif" font-weight="400" font-size="16" transform="matrix(1 0 0 1.0011 438.344 94)">(</text><text font-family="Times New Roman,Times New Roman_MSFontService,sans-serif" font-weight="400" font-size="16" transform="matrix(1 0 0 1.0011 443.51 94)">evaluate.py</text><text font-family="Times New Roman,Times New Roman_MSFontService,sans-serif" font-weight="400" font-size="16" transform="matrix(1 0 0 1.0011 514.677 94)">)</text><text font-family="Times New Roman,Times New Roman_MSFontService,sans-serif" font-weight="400" font-size="16" transform="matrix(1 0 0 1.0011 426.844 112)">-</text><text font-family="Times New Roman,Times New Roman_MSFontService,sans-serif" font-weight="400" font-size="16" transform="matrix(1 0 0 1.0011 435.844 112)">Trainer</text><text font-family="Times New Roman,Times New Roman_MSFontService,sans-serif" font-weight="400" font-size="16" transform="matrix(1 0 0 1.0011 438.344 131)">(</text><text font-family="Times New Roman,Times New Roman_MSFontService,sans-serif" font-weight="400" font-size="16" transform="matrix(1 0 0 1.0011 443.51 131)">train.py</text><text font-family="Times New Roman,Times New Roman_MSFontService,sans-serif" font-weight="400" font-size="16" transform="matrix(1 0 0 1.0011 491.51 131)">)</text><path d="M541 46.0507 541 149.125" stroke="#DBDCDC" stroke-width="2" stroke-miterlimit="8" stroke-dasharray="8 6" fill="none" fill-rule="evenodd"/><path d="M52 168.142C52 161.531 57.3533 156.172 63.957 156.172L780.043 156.172C786.647 156.172 792 161.531 792 168.142L792 285.357C792 291.968 786.647 297.327 780.043 297.327L63.957 297.327C57.3533 297.327 52 291.968 52 285.357Z" stroke="#31B186" stroke-width="2" stroke-miterlimit="8" fill="#F9FDFF" fill-rule="evenodd"/><path d="M63.3274 157.173 780.673 157.173C786.929 157.173 792 162.25 792 168.513L792 187.206 52 187.206 52 168.513C52 162.25 57.0715 157.173 63.3274 157.173Z" stroke="#31B186" stroke-width="2" stroke-miterlimit="8" fill="#31B186" fill-rule="evenodd"/><text fill="#FFFFFF" font-family="Times New Roman,Times New Roman_MSFontService,sans-serif" font-weight="700" font-size="16" transform="matrix(1 0 0 1.0011 346.007 180)">Packages</text><text fill="#FFFFFF" font-family="Times New Roman,Times New Roman_MSFontService,sans-serif" font-weight="700" font-size="16" transform="matrix(1 0 0 1.0011 411.174 180)">and Features</text><text font-family="Times New Roman,Times New Roman_MSFontService,sans-serif" font-weight="700" font-size="16" transform="matrix(1 0 0 1.0011 130.166 203)">Data package</text><text font-family="Times New Roman,Times New Roman_MSFontService,sans-serif" font-weight="400" font-size="16" transform="matrix(1 0 0 1.0011 62.444 227)">-</text><text font-family="Times New Roman,Times New Roman_MSFontService,sans-serif" font-weight="400" font-size="16" transform="matrix(1 0 0 1.0011 71.444 227)">Dataset (multi</text><text font-family="Times New Roman,Times New Roman_MSFontService,sans-serif" font-weight="400" font-size="16" transform="matrix(1 0 0 1.0011 159.777 227)">-</text><text font-family="Times New Roman,Times New Roman_MSFontService,sans-serif" font-weight="400" font-size="16" transform="matrix(1 0 0 1.0011 164.944 227)">source, loading)</text><text font-family="Times New Roman,Times New Roman_MSFontService,sans-serif" font-weight="400" font-size="16" transform="matrix(1 0 0 1.0011 62.444 246)">-</text><text font-family="Times New Roman,Times New Roman_MSFontService,sans-serif" font-weight="400" font-size="16" transform="matrix(1 0 0 1.0011 71.444 246)">Scaling (Static, dynamic, sparse)</text><text font-family="Times New Roman,Times New Roman_MSFontService,sans-serif" font-weight="400" font-size="16" transform="matrix(1 0 0 1.0011 62.444 264)">-</text><text font-family="Times New Roman,Times New Roman_MSFontService,sans-serif" font-weight="400" font-size="16" transform="matrix(1 0 0 1.0011 71.444 264)">Splitting (Dual</text><text font-family="Times New Roman,Times New Roman_MSFontService,sans-serif" font-weight="400" font-size="16" transform="matrix(1 0 0 1.0011 164.444 264)">-</text><text font-family="Times New Roman,Times New Roman_MSFontService,sans-serif" font-weight="400" font-size="16" transform="matrix(1 0 0 1.0011 169.611 264)">boundary)</text><text font-family="Times New Roman,Times New Roman_MSFontService,sans-serif" font-weight="400" font-size="16" transform="matrix(1 0 0 1.0011 62.444 283)">-</text><text font-family="Times New Roman,Times New Roman_MSFontService,sans-serif" font-weight="400" font-size="16" transform="matrix(1 0 0 1.0011 71.444 283)">Masking (Static, dynamic)</text><text font-family="Times New Roman,Times New Roman_MSFontService,sans-serif" font-weight="700" font-size="16" transform="matrix(1 0 0 1.0011 365.272 203)">Model package</text><text font-family="Times New Roman,Times New Roman_MSFontService,sans-serif" font-weight="400" font-size="16" transform="matrix(1 0 0 1.0011 325.164 226)">-</text><text font-family="Times New Roman,Times New Roman_MSFontService,sans-serif" font-weight="400" font-size="16" transform="matrix(1 0 0 1.0011 334.164 226)">Base (Shapelet, DyT)</text><text font-family="Times New Roman,Times New Roman_MSFontService,sans-serif" font-weight="400" font-size="16" transform="matrix(1 0 0 1.0011 325.164 245)">-</text><text font-family="Times New Roman,Times New Roman_MSFontService,sans-serif" font-weight="400" font-size="16" transform="matrix(1 0 0 1.0011 334.164 245)">UTS/MTS (50+ models)</text><text font-family="Times New Roman,Times New Roman_MSFontService,sans-serif" font-weight="400" font-size="16" transform="matrix(1 0 0 1.0011 325.164 263)">-</text><text font-family="Times New Roman,Times New Roman_MSFontService,sans-serif" font-weight="400" font-size="16" transform="matrix(1 0 0 1.0011 334.164 263)">Fusible models and plugins</text><text font-family="Times New Roman,Times New Roman_MSFontService,sans-serif" font-weight="400" font-size="16" transform="matrix(1 0 0 1.0011 325.164 282)">-</text><text font-family="Times New Roman,Times New Roman_MSFontService,sans-serif" font-weight="400" font-size="16" transform="matrix(1 0 0 1.0011 334.164 282)">Generative models</text><text font-family="Times New Roman,Times New Roman_MSFontService,sans-serif" font-weight="700" font-size="16" transform="matrix(1 0 0 1.0011 616.573 203)">Metric package</text><text font-family="Times New Roman,Times New Roman_MSFontService,sans-serif" font-weight="400" font-size="16" transform="matrix(1 0 0 1.0011 571.152 233)">-</text><text font-family="Times New Roman,Times New Roman_MSFontService,sans-serif" font-weight="400" font-size="16" transform="matrix(1 0 0 1.0011 580.152 233)">Evaluator (metric manager)</text><text font-family="Times New Roman,Times New Roman_MSFontService,sans-serif" font-weight="400" font-size="16" transform="matrix(1 0 0 1.0011 571.152 252)">-</text><text font-family="Times New Roman,Times New Roman_MSFontService,sans-serif" font-weight="400" font-size="16" transform="matrix(1 0 0 1.0011 580.152 252)">Losses (sparse, aggregation)</text><text font-family="Times New Roman,Times New Roman_MSFontService,sans-serif" font-weight="400" font-size="16" transform="matrix(1 0 0 1.0011 571.152 270)">-</text><text font-family="Times New Roman,Times New Roman_MSFontService,sans-serif" font-weight="400" font-size="16" transform="matrix(1 0 0 1.0011 580.152 270)">Metrics (sparse, aggregation)</text><path d="M300 195.215 300 298.289" stroke="#DBDCDC" stroke-width="2" stroke-miterlimit="8" stroke-dasharray="8 6" fill="none" fill-rule="evenodd"/><path d="M541 195.215 541 298.289" stroke="#DBDCDC" stroke-width="2" stroke-miterlimit="8" stroke-dasharray="8 6" fill="none" fill-rule="evenodd"/><path d="M52 317.221C52 310.657 57.3153 305.336 63.872 305.336L780.128 305.336C786.685 305.336 792 310.657 792 317.221L792 433.605C792 440.169 786.685 445.491 780.128 445.491L63.872 445.491C57.3153 445.491 52 440.169 52 433.605Z" stroke="#F3A740" stroke-width="2" stroke-miterlimit="8" fill="#F9FDFF" fill-rule="evenodd"/><path d="M63.3274 305.336 780.673 305.336C786.929 305.336 792 310.413 792 316.676L792 335.369 52 335.369 52 316.676C52 310.413 57.0715 305.336 63.3274 305.336Z" stroke="#F3A740" stroke-width="2" stroke-miterlimit="8" fill="#F3A740" fill-rule="evenodd"/><text fill="#FFFFFF" font-family="Times New Roman,Times New Roman_MSFontService,sans-serif" font-weight="700" font-size="16" transform="matrix(1 0 0 1.0011 371.174 328)">Infrastructures</text><text font-family="Times New Roman,Times New Roman_MSFontService,sans-serif" font-weight="700" font-size="16" transform="matrix(1 0 0 1.0011 98.7628 357)">Data Sources &amp; Access</text><text font-family="Times New Roman,Times New Roman_MSFontService,sans-serif" font-weight="400" font-size="16" transform="matrix(1 0 0 1.0011 103.612 390)">-</text><text font-family="Times New Roman,Times New Roman_MSFontService,sans-serif" font-weight="400" font-size="16" transform="matrix(1 0 0 1.0011 112.612 390)">Built</text><text font-family="Times New Roman,Times New Roman_MSFontService,sans-serif" font-weight="400" font-size="16" transform="matrix(1 0 0 1.0011 143.779 390)">-</text><text font-family="Times New Roman,Times New Roman_MSFontService,sans-serif" font-weight="400" font-size="16" transform="matrix(1 0 0 1.0011 148.945 390)">in dataset</text><text font-family="Times New Roman,Times New Roman_MSFontService,sans-serif" font-weight="400" font-size="16" transform="matrix(1 0 0 1.0011 103.612 409)">-</text><text font-family="Times New Roman,Times New Roman_MSFontService,sans-serif" font-weight="400" font-size="16" transform="matrix(1 0 0 1.0011 112.612 409)">Local/remote Data</text><text font-family="Times New Roman,Times New Roman_MSFontService,sans-serif" font-weight="400" font-size="16" transform="matrix(1 0 0 1.0011 103.612 427)">-</text><text font-family="Times New Roman,Times New Roman_MSFontService,sans-serif" font-weight="400" font-size="16" transform="matrix(1 0 0 1.0011 112.612 427)">FAST community</text><text font-family="Times New Roman,Times New Roman_MSFontService,sans-serif" font-weight="700" font-size="16" transform="matrix(1 0 0 1.0011 350.848 357)">Training Utilities</text><text font-family="Times New Roman,Times New Roman_MSFontService,sans-serif" font-weight="400" font-size="16" transform="matrix(1 0 0 1.0011 346.837 390)">-</text><text font-family="Times New Roman,Times New Roman_MSFontService,sans-serif" font-weight="400" font-size="16" transform="matrix(1 0 0 1.0011 355.837 390)">Training pipeline</text><text font-family="Times New Roman,Times New Roman_MSFontService,sans-serif" font-weight="400" font-size="16" transform="matrix(1 0 0 1.0011 346.837 409)">-</text><text font-family="Times New Roman,Times New Roman_MSFontService,sans-serif" font-weight="400" font-size="16" transform="matrix(1 0 0 1.0011 355.837 409)">Reproducibility</text><text font-family="Times New Roman,Times New Roman_MSFontService,sans-serif" font-weight="400" font-size="16" transform="matrix(1 0 0 1.0011 346.837 427)">-</text><text font-family="Times New Roman,Times New Roman_MSFontService,sans-serif" font-weight="400" font-size="16" transform="matrix(1 0 0 1.0011 355.837 427)">Devices synergy</text><text font-family="Times New Roman,Times New Roman_MSFontService,sans-serif" font-weight="700" font-size="16" transform="matrix(1 0 0 1.0011 557.946 357)">Model Artifacts &amp; Management</text><text font-family="Times New Roman,Times New Roman_MSFontService,sans-serif" font-weight="400" font-size="16" transform="matrix(1 0 0 1.0011 608.893 387)">-</text><text font-family="Times New Roman,Times New Roman_MSFontService,sans-serif" font-weight="400" font-size="16" transform="matrix(1 0 0 1.0011 617.893 387)">Trained model</text><text font-family="Times New Roman,Times New Roman_MSFontService,sans-serif" font-weight="400" font-size="16" transform="matrix(1 0 0 1.0011 608.893 406)">-</text><text font-family="Times New Roman,Times New Roman_MSFontService,sans-serif" font-weight="400" font-size="16" transform="matrix(1 0 0 1.0011 617.893 406)">Configurations</text><text font-family="Times New Roman,Times New Roman_MSFontService,sans-serif" font-weight="400" font-size="16" transform="matrix(1 0 0 1.0011 608.893 424)">-</text><text font-family="Times New Roman,Times New Roman_MSFontService,sans-serif" font-weight="400" font-size="16" transform="matrix(1 0 0 1.0011 617.893 424)">Evaluation</text><path d="M300 345.38 300 448.454" stroke="#DBDCDC" stroke-width="2" stroke-miterlimit="8" stroke-dasharray="8 6" fill="none" fill-rule="evenodd"/><path d="M541 345.38 541 448.454" stroke="#DBDCDC" stroke-width="2" stroke-miterlimit="8" stroke-dasharray="8 6" fill="none" fill-rule="evenodd"/><text font-family="Times New Roman,Times New Roman_MSFontService,sans-serif" font-weight="700" font-size="16" transform="matrix(-1.83697e-16 -1.00221 0.998899 -1.839e-16 19.8001 156)">Integration</text><text font-family="Times New Roman,Times New Roman_MSFontService,sans-serif" font-weight="700" font-size="16" transform="matrix(-1.83697e-16 -1.00221 0.998899 -1.839e-16 20.3672 380)">Implementation</text><text font-family="Times New Roman,Times New Roman_MSFontService,sans-serif" font-weight="700" font-size="16" transform="matrix(6.12323e-17 1.00221 -0.998899 6.12999e-17 822.969 96)">Update</text><text font-family="Times New Roman,Times New Roman_MSFontService,sans-serif" font-weight="700" font-size="16" transform="matrix(6.12323e-17 1.00221 -0.998899 6.12999e-17 825.533 301)">Persistence</text></g></svg>