<svg width="720" height="378" xmlns="http://www.w3.org/2000/svg" xmlns:xlink="http://www.w3.org/1999/xlink" overflow="hidden"><g><rect x="0" y="0" width="720" height="378" fill="#FFFFFF"/><path d="M652.5 239.823C652.5 237.988 653.988 236.5 655.823 236.5L697.178 236.5C699.013 236.5 700.5 237.988 700.5 239.823L700.5 321.178C700.5 323.013 699.013 324.5 697.178 324.5L655.823 324.5C653.988 324.5 652.5 323.013 652.5 321.178Z" stroke="#4EA72E" stroke-width="0.666667" stroke-miterlimit="8" fill="none" fill-rule="evenodd"/><rect x="647" y="233" width="33" height="94" fill="#FFFFFF"/><path d="M2.97393e-06-0.333333 7.76746-0.333264 7.76745 0.333403-2.97393e-06 0.333333ZM6.43416-3.99994 11.7675 0.000104987 6.43408 4.00006Z" fill="#4EA72E" transform="matrix(-1 0 0 1 691.268 324.5)"/><path d="M653.5 61.7534C653.5 59.9566 654.957 58.5001 656.753 58.5001L697.247 58.5001C699.043 58.5001 700.5 59.9566 700.5 61.7534L700.5 142.247C700.5 144.043 699.043 145.5 697.247 145.5L656.753 145.5C654.957 145.5 653.5 144.043 653.5 142.247Z" stroke="#4EA72E" stroke-width="0.666667" stroke-miterlimit="8" fill="none" fill-rule="evenodd"/><rect x="648" y="54" width="33" height="95" fill="#FFFFFF"/><path d="M2.97393e-06-0.333333 7.76746-0.333264 7.76745 0.333403-2.97393e-06 0.333333ZM6.43416-3.99994 11.7675 0.000104987 6.43408 4.00006Z" fill="#4EA72E" transform="matrix(-1 0 0 1 692.268 145.5)"/><path d="M21.5001 61.7534C21.5001 59.9566 22.9566 58.5001 24.7534 58.5001L65.2467 58.5001C67.0435 58.5001 68.5001 59.9566 68.5001 61.7534L68.5001 142.247C68.5001 144.043 67.0435 145.5 65.2467 145.5L24.7534 145.5C22.9566 145.5 21.5001 144.043 21.5001 142.247Z" stroke="#4EA72E" stroke-width="0.666667" stroke-miterlimit="8" fill="none" fill-rule="evenodd"/><rect x="39" y="54" width="33" height="95" fill="#FFFFFF"/><path d="M27.5001 58.1667 36.3125 58.1668 36.3125 58.8335 27.5001 58.8334ZM34.9792 54.5001 40.3125 58.5002 34.9792 62.5001Z" fill="#4EA72E"/><path d="M21.5001 239.753C21.5001 237.957 22.9566 236.5 24.7534 236.5L65.2467 236.5C67.0435 236.5 68.5001 237.957 68.5001 239.753L68.5001 321.247C68.5001 323.043 67.0435 324.5 65.2467 324.5L24.7534 324.5C22.9566 324.5 21.5001 323.043 21.5001 321.247Z" stroke="#4EA72E" stroke-width="0.666667" stroke-miterlimit="8" fill="none" fill-rule="evenodd"/><rect x="38" y="233" width="33" height="94" fill="#FFFFFF"/><path d="M26.5001 236.167 35.3125 236.167 35.3125 236.833 26.5001 236.833ZM33.9792 232.5 39.3125 236.5 33.9792 240.5Z" fill="#4EA72E"/><path d="M40 14.091C40 8.51788 44.5179 4 50.0909 4L668.909 4C674.482 4 679 8.51788 679 14.091L679 112.909C679 118.482 674.482 123 668.909 123L50.0909 123C44.5179 123 40 118.482 40 112.909Z" stroke="#4E87E6" stroke-width="2" stroke-miterlimit="8" fill="#F9FDFF" fill-rule="evenodd"/><path d="M49.817 4 669.183 4C674.605 4 679 8.3953 679 13.8172L679 30 40 30 40 13.8172C40 8.3953 44.3952 4 49.817 4Z" stroke="#4E87E6" stroke-width="2" stroke-miterlimit="8" fill="#4E87E6" fill-rule="evenodd"/><text fill="#FFFFFF" font-family="Times New Roman,Times New Roman_MSFontService,sans-serif" font-weight="700" font-size="13" transform="translate(280.857 23)">Interfaces and Applications</text><text font-family="Times New Roman,Times New Roman_MSFontService,sans-serif" font-weight="700" font-size="13" transform="translate(99.0486 44)">User Interaction</text><text font-family="Times New Roman,Times New Roman_MSFontService,sans-serif" font-weight="400" font-size="13" transform="translate(51.3271 70)">-</text><text font-family="Times New Roman,Times New Roman_MSFontService,sans-serif" font-weight="400" font-size="13" transform="translate(59.1605 70)">Forecasting</text><text font-family="Times New Roman,Times New Roman_MSFontService,sans-serif" font-weight="400" font-size="13" transform="translate(51.3271 86)">-</text><text font-family="Times New Roman,Times New Roman_MSFontService,sans-serif" font-weight="400" font-size="13" transform="translate(59.1605 86)">Imputation</text><text font-family="Times New Roman,Times New Roman_MSFontService,sans-serif" font-weight="400" font-size="13" transform="translate(51.3271 102)">-</text><text font-family="Times New Roman,Times New Roman_MSFontService,sans-serif" font-weight="400" font-size="13" transform="translate(59.1605 102)">Ensemble</text><text font-family="Times New Roman,Times New Roman_MSFontService,sans-serif" font-weight="700" font-size="13" transform="translate(309.145 44)">High</text><text font-family="Times New Roman,Times New Roman_MSFontService,sans-serif" font-weight="700" font-size="13" transform="translate(337.145 44)">-</text><text font-family="Times New Roman,Times New Roman_MSFontService,sans-serif" font-weight="700" font-size="13" transform="translate(341.645 44)">Level API</text><text font-family="Times New Roman,Times New Roman_MSFontService,sans-serif" font-weight="400" font-size="13" transform="translate(268.826 61)">-</text><text font-family="Times New Roman,Times New Roman_MSFontService,sans-serif" font-weight="400" font-size="13" transform="translate(276.659 61)">Processing</text><text font-family="Times New Roman,Times New Roman_MSFontService,sans-serif" font-weight="400" font-size="13" transform="translate(278.826 77)">(</text><text font-family="Times New Roman,Times New Roman_MSFontService,sans-serif" font-weight="400" font-size="13" transform="translate(283.326 77)">load.py</text><text font-family="Times New Roman,Times New Roman_MSFontService,sans-serif" font-weight="400" font-size="13" transform="translate(322.993 77)">)</text><text font-family="Times New Roman,Times New Roman_MSFontService,sans-serif" font-weight="400" font-size="13" transform="translate(268.826 93)">-</text><text font-family="Times New Roman,Times New Roman_MSFontService,sans-serif" font-weight="400" font-size="13" transform="translate(276.659 93)">Model</text><text font-family="Times New Roman,Times New Roman_MSFontService,sans-serif" font-weight="400" font-size="13" transform="translate(278.826 109)">(modelers)</text><text font-family="Times New Roman,Times New Roman_MSFontService,sans-serif" font-weight="700" font-size="13" transform="translate(537.763 44)">Application</text><text font-family="Times New Roman,Times New Roman_MSFontService,sans-serif" font-weight="400" font-size="13" transform="translate(479.135 64)">-</text><text font-family="Times New Roman,Times New Roman_MSFontService,sans-serif" font-weight="400" font-size="13" transform="translate(486.969 64)">Sparse forecasting (ITSF,</text><text font-family="Times New Roman,Times New Roman_MSFontService,sans-serif" font-weight="400" font-size="13" transform="translate(627.302 64)">pKa</text><text font-family="Times New Roman,Times New Roman_MSFontService,sans-serif" font-weight="400" font-size="13" transform="translate(649.635 64)">)</text><text font-family="Times New Roman,Times New Roman_MSFontService,sans-serif" font-weight="400" font-size="13" transform="translate(479.135 80)">-</text><text font-family="Times New Roman,Times New Roman_MSFontService,sans-serif" font-weight="400" font-size="13" transform="translate(486.969 80)">Personalization forecasting</text><text font-family="Times New Roman,Times New Roman_MSFontService,sans-serif" font-weight="400" font-size="13" transform="translate(479.135 96)">-</text><text font-family="Times New Roman,Times New Roman_MSFontService,sans-serif" font-weight="400" font-size="13" transform="translate(486.969 96)">Online/offline forecasting</text><text font-family="Times New Roman,Times New Roman_MSFontService,sans-serif" font-weight="400" font-size="13" transform="translate(479.135 112)">-</text><text font-family="Times New Roman,Times New Roman_MSFontService,sans-serif" font-weight="400" font-size="13" transform="translate(486.969 112)">LLM</text><text font-family="Times New Roman,Times New Roman_MSFontService,sans-serif" font-weight="400" font-size="13" transform="translate(515.135 112)">-</text><text font-family="Times New Roman,Times New Roman_MSFontService,sans-serif" font-weight="400" font-size="13" transform="translate(519.635 112)">inspired (alignment</text><text font-family="Times New Roman,Times New Roman_MSFontService,sans-serif" font-weight="400" font-size="13" transform="translate(623.802 112)">-</text><text font-family="Times New Roman,Times New Roman_MSFontService,sans-serif" font-weight="400" font-size="13" transform="translate(628.302 112)">free)</text><path d="M254 35 254 122.648" stroke="#DBDCDC" stroke-width="2" stroke-miterlimit="8" stroke-dasharray="8 6" fill="none" fill-rule="evenodd"/><text font-family="Times New Roman,Times New Roman_MSFontService,sans-serif" font-weight="400" font-size="13" transform="translate(144.538 70)">-</text><text font-family="Times New Roman,Times New Roman_MSFontService,sans-serif" font-weight="400" font-size="13" transform="translate(152.371 70)">Prototyping</text><text font-family="Times New Roman,Times New Roman_MSFontService,sans-serif" font-weight="400" font-size="13" transform="translate(144.538 86)">-</text><text font-family="Times New Roman,Times New Roman_MSFontService,sans-serif" font-weight="400" font-size="13" transform="translate(152.371 86)">Customization</text><text font-family="Times New Roman,Times New Roman_MSFontService,sans-serif" font-weight="400" font-size="13" transform="translate(144.538 102)">-</text><text font-family="Times New Roman,Times New Roman_MSFontService,sans-serif" font-weight="400" font-size="13" transform="translate(152.371 102)">Examples</text><text font-family="Times New Roman,Times New Roman_MSFontService,sans-serif" font-weight="400" font-size="13" transform="translate(364.909 62)">-</text><text font-family="Times New Roman,Times New Roman_MSFontService,sans-serif" font-weight="400" font-size="13" transform="translate(372.742 62)">Evaluator</text><text font-family="Times New Roman,Times New Roman_MSFontService,sans-serif" font-weight="400" font-size="13" transform="translate(374.909 78)">(</text><text font-family="Times New Roman,Times New Roman_MSFontService,sans-serif" font-weight="400" font-size="13" transform="translate(379.409 78)">evaluate.py</text><text font-family="Times New Roman,Times New Roman_MSFontService,sans-serif" font-weight="400" font-size="13" transform="translate(440.742 78)">)</text><text font-family="Times New Roman,Times New Roman_MSFontService,sans-serif" font-weight="400" font-size="13" transform="translate(364.909 94)">-</text><text font-family="Times New Roman,Times New Roman_MSFontService,sans-serif" font-weight="400" font-size="13" transform="translate(372.742 94)">Trainer</text><text font-family="Times New Roman,Times New Roman_MSFontService,sans-serif" font-weight="400" font-size="13" transform="translate(374.909 110)">(</text><text font-family="Times New Roman,Times New Roman_MSFontService,sans-serif" font-weight="400" font-size="13" transform="translate(379.409 110)">train.py</text><text font-family="Times New Roman,Times New Roman_MSFontService,sans-serif" font-weight="400" font-size="13" transform="translate(420.576 110)">)</text><path d="M462 35 462 122.648" stroke="#DBDCDC" stroke-width="2" stroke-miterlimit="8" stroke-dasharray="8 6" fill="none" fill-rule="evenodd"/><path d="M40 140.091C40 134.518 44.5179 130 50.0909 130L668.909 130C674.482 130 679 134.518 679 140.091L679 238.909C679 244.482 674.482 249 668.909 249L50.0909 249C44.5179 249 40 244.482 40 238.909Z" stroke="#31B186" stroke-width="2" stroke-miterlimit="8" fill="#F9FDFF" fill-rule="evenodd"/><path d="M49.817 130 669.183 130C674.605 130 679 134.395 679 139.817L679 156 40 156 40 139.817C40 134.395 44.3952 130 49.817 130Z" stroke="#31B186" stroke-width="2" stroke-miterlimit="8" fill="#31B186" fill-rule="evenodd"/><text fill="#FFFFFF" font-family="Times New Roman,Times New Roman_MSFontService,sans-serif" font-weight="700" font-size="13" transform="translate(294.107 149)">Packages</text><text fill="#FFFFFF" font-family="Times New Roman,Times New Roman_MSFontService,sans-serif" font-weight="700" font-size="13" transform="translate(350.107 149)">and Features</text><text font-family="Times New Roman,Times New Roman_MSFontService,sans-serif" font-weight="700" font-size="13" transform="translate(107.299 170)">Data package</text><text font-family="Times New Roman,Times New Roman_MSFontService,sans-serif" font-weight="400" font-size="13" transform="translate(49.6934 190)">-</text><text font-family="Times New Roman,Times New Roman_MSFontService,sans-serif" font-weight="400" font-size="13" transform="translate(57.5268 190)">Dataset (multi</text><text font-family="Times New Roman,Times New Roman_MSFontService,sans-serif" font-weight="400" font-size="13" transform="translate(133.527 190)">-</text><text font-family="Times New Roman,Times New Roman_MSFontService,sans-serif" font-weight="400" font-size="13" transform="translate(138.027 190)">source, loading)</text><text font-family="Times New Roman,Times New Roman_MSFontService,sans-serif" font-weight="400" font-size="13" transform="translate(49.6934 206)">-</text><text font-family="Times New Roman,Times New Roman_MSFontService,sans-serif" font-weight="400" font-size="13" transform="translate(57.5268 206)">Scaling (Static, dynamic, sparse)</text><text font-family="Times New Roman,Times New Roman_MSFontService,sans-serif" font-weight="400" font-size="13" transform="translate(49.6934 222)">-</text><text font-family="Times New Roman,Times New Roman_MSFontService,sans-serif" font-weight="400" font-size="13" transform="translate(57.5268 222)">Splitting (Dual</text><text font-family="Times New Roman,Times New Roman_MSFontService,sans-serif" font-weight="400" font-size="13" transform="translate(137.027 222)">-</text><text font-family="Times New Roman,Times New Roman_MSFontService,sans-serif" font-weight="400" font-size="13" transform="translate(141.527 222)">boundary)</text><text font-family="Times New Roman,Times New Roman_MSFontService,sans-serif" font-weight="400" font-size="13" transform="translate(49.6934 238)">-</text><text font-family="Times New Roman,Times New Roman_MSFontService,sans-serif" font-weight="400" font-size="13" transform="translate(57.5268 238)">Masking (Static, dynamic)</text><text font-family="Times New Roman,Times New Roman_MSFontService,sans-serif" font-weight="700" font-size="13" transform="translate(310.725 170)">Model package</text><text font-family="Times New Roman,Times New Roman_MSFontService,sans-serif" font-weight="400" font-size="13" transform="translate(276.953 190)">-</text><text font-family="Times New Roman,Times New Roman_MSFontService,sans-serif" font-weight="400" font-size="13" transform="translate(284.786 190)">Base (Shapelet, DyT)</text><text font-family="Times New Roman,Times New Roman_MSFontService,sans-serif" font-weight="400" font-size="13" transform="translate(276.953 206)">-</text><text font-family="Times New Roman,Times New Roman_MSFontService,sans-serif" font-weight="400" font-size="13" transform="translate(284.786 206)">UTS/MTS (50+ models)</text><text font-family="Times New Roman,Times New Roman_MSFontService,sans-serif" font-weight="400" font-size="13" transform="translate(276.953 222)">-</text><text font-family="Times New Roman,Times New Roman_MSFontService,sans-serif" font-weight="400" font-size="13" transform="translate(284.786 222)">Fusible models and plugins</text><text font-family="Times New Roman,Times New Roman_MSFontService,sans-serif" font-weight="400" font-size="13" transform="translate(276.953 238)">-</text><text font-family="Times New Roman,Times New Roman_MSFontService,sans-serif" font-weight="400" font-size="13" transform="translate(284.786 238)">Generative models</text><text font-family="Times New Roman,Times New Roman_MSFontService,sans-serif" font-weight="700" font-size="13" transform="translate(527.866 170)">Metric package</text><text font-family="Times New Roman,Times New Roman_MSFontService,sans-serif" font-weight="400" font-size="13" transform="translate(489.739 196)">-</text><text font-family="Times New Roman,Times New Roman_MSFontService,sans-serif" font-weight="400" font-size="13" transform="translate(497.573 196)">Evaluator (metric manager)</text><text font-family="Times New Roman,Times New Roman_MSFontService,sans-serif" font-weight="400" font-size="13" transform="translate(489.739 212)">-</text><text font-family="Times New Roman,Times New Roman_MSFontService,sans-serif" font-weight="400" font-size="13" transform="translate(497.573 212)">Losses (sparse, aggregation)</text><text font-family="Times New Roman,Times New Roman_MSFontService,sans-serif" font-weight="400" font-size="13" transform="translate(489.739 228)">-</text><text font-family="Times New Roman,Times New Roman_MSFontService,sans-serif" font-weight="400" font-size="13" transform="translate(497.573 228)">Metrics (sparse, aggregation)</text><path d="M254 162 254 249.648" stroke="#DBDCDC" stroke-width="2" stroke-miterlimit="8" stroke-dasharray="8 6" fill="none" fill-rule="evenodd"/><path d="M462 162 462 249.648" stroke="#DBDCDC" stroke-width="2" stroke-miterlimit="8" stroke-dasharray="8 6" fill="none" fill-rule="evenodd"/><path d="M40 266.176C40 260.556 44.556 256 50.1762 256L668.824 256C674.444 256 679 260.556 679 266.176L679 365.824C679 371.444 674.444 376 668.824 376L50.1762 376C44.556 376 40 371.444 40 365.824Z" stroke="#F3A740" stroke-width="2" stroke-miterlimit="8" fill="#F9FDFF" fill-rule="evenodd"/><path d="M49.817 256 669.183 256C674.605 256 679 260.395 679 265.817L679 282 40 282 40 265.817C40 260.395 44.3952 256 49.817 256Z" stroke="#F3A740" stroke-width="2" stroke-miterlimit="8" fill="#F3A740" fill-rule="evenodd"/><text fill="#FFFFFF" font-family="Times New Roman,Times New Roman_MSFontService,sans-serif" font-weight="700" font-size="13" transform="translate(315.524 276)">Infrastructures</text><text font-family="Times New Roman,Times New Roman_MSFontService,sans-serif" font-weight="700" font-size="13" transform="translate(79.9012 301)">Data Sources &amp; Access</text><text font-family="Times New Roman,Times New Roman_MSFontService,sans-serif" font-weight="400" font-size="13" transform="translate(85.3049 328)">-</text><text font-family="Times New Roman,Times New Roman_MSFontService,sans-serif" font-weight="400" font-size="13" transform="translate(93.1382 328)">Built</text><text font-family="Times New Roman,Times New Roman_MSFontService,sans-serif" font-weight="400" font-size="13" transform="translate(119.638 328)">-</text><text font-family="Times New Roman,Times New Roman_MSFontService,sans-serif" font-weight="400" font-size="13" transform="translate(124.138 328)">in dataset</text><text font-family="Times New Roman,Times New Roman_MSFontService,sans-serif" font-weight="400" font-size="13" transform="translate(85.3049 344)">-</text><text font-family="Times New Roman,Times New Roman_MSFontService,sans-serif" font-weight="400" font-size="13" transform="translate(93.1382 344)">Local/remote Data</text><text font-family="Times New Roman,Times New Roman_MSFontService,sans-serif" font-weight="400" font-size="13" transform="translate(85.3049 360)">-</text><text font-family="Times New Roman,Times New Roman_MSFontService,sans-serif" font-weight="400" font-size="13" transform="translate(93.1382 360)">FAST community</text><text font-family="Times New Roman,Times New Roman_MSFontService,sans-serif" font-weight="700" font-size="13" transform="translate(298.326 301)">Training Utilities</text><text font-family="Times New Roman,Times New Roman_MSFontService,sans-serif" font-weight="400" font-size="13" transform="translate(295.701 329)">-</text><text font-family="Times New Roman,Times New Roman_MSFontService,sans-serif" font-weight="400" font-size="13" transform="translate(303.534 329)">Training pipeline</text><text font-family="Times New Roman,Times New Roman_MSFontService,sans-serif" font-weight="400" font-size="13" transform="translate(295.701 345)">-</text><text font-family="Times New Roman,Times New Roman_MSFontService,sans-serif" font-weight="400" font-size="13" transform="translate(303.534 345)">Reproducibility</text><text font-family="Times New Roman,Times New Roman_MSFontService,sans-serif" font-weight="400" font-size="13" transform="translate(295.701 361)">-</text><text font-family="Times New Roman,Times New Roman_MSFontService,sans-serif" font-weight="400" font-size="13" transform="translate(303.534 361)">Devices synergy</text><text font-family="Times New Roman,Times New Roman_MSFontService,sans-serif" font-weight="700" font-size="13" transform="translate(477.418 301)">Model Artifacts &amp; Management</text><text font-family="Times New Roman,Times New Roman_MSFontService,sans-serif" font-weight="400" font-size="13" transform="translate(522.387 327)">-</text><text font-family="Times New Roman,Times New Roman_MSFontService,sans-serif" font-weight="400" font-size="13" transform="translate(530.22 327)">Trained model</text><text font-family="Times New Roman,Times New Roman_MSFontService,sans-serif" font-weight="400" font-size="13" transform="translate(522.387 343)">-</text><text font-family="Times New Roman,Times New Roman_MSFontService,sans-serif" font-weight="400" font-size="13" transform="translate(530.22 343)">Configurations</text><text font-family="Times New Roman,Times New Roman_MSFontService,sans-serif" font-weight="400" font-size="13" transform="translate(522.387 359)">-</text><text font-family="Times New Roman,Times New Roman_MSFontService,sans-serif" font-weight="400" font-size="13" transform="translate(530.22 359)">Evaluation</text><path d="M254 290 254 377.648" stroke="#DBDCDC" stroke-width="2" stroke-miterlimit="8" stroke-dasharray="8 6" fill="none" fill-rule="evenodd"/><path d="M462 290 462 377.648" stroke="#DBDCDC" stroke-width="2" stroke-miterlimit="8" stroke-dasharray="8 6" fill="none" fill-rule="evenodd"/><text font-family="Times New Roman,Times New Roman_MSFontService,sans-serif" font-weight="700" font-size="13" transform="matrix(-1.83697e-16 -1 1 -1.83697e-16 12.2221 130)">Integration</text><text font-family="Times New Roman,Times New Roman_MSFontService,sans-serif" font-weight="700" font-size="13" transform="matrix(-1.83697e-16 -1 1 -1.83697e-16 12.7129 320)">Implementation</text><text font-family="Times New Roman,Times New Roman_MSFontService,sans-serif" font-weight="700" font-size="13" transform="matrix(6.12323e-17 1 -1 6.12323e-17 705.56 78)">Update</text><text font-family="Times New Roman,Times New Roman_MSFontService,sans-serif" font-weight="700" font-size="13" transform="matrix(6.12323e-17 1 -1 6.12323e-17 707.778 252)">Persistence</text></g></svg>